<mxfile host="Electron" agent="Mozilla/5.0 (Windows NT 10.0; Win64; x64) AppleWebKit/537.36 (KHTML, like Gecko) draw.io/26.0.16 Chrome/132.0.6834.196 Electron/34.2.0 Safari/537.36" version="26.0.16">
  <diagram name="Page-1" id="PsSu6HU68gLfd_cR68fn">
    <mxGraphModel dx="2284" dy="836" grid="0" gridSize="10" guides="1" tooltips="1" connect="1" arrows="1" fold="1" page="1" pageScale="1" pageWidth="850" pageHeight="1100" math="0" shadow="0">
      <root>
        <mxCell id="0" />
        <mxCell id="1" parent="0" />
        <mxCell id="0ixl7kUn-2Kp-ZEXlMbW-2" value="" style="endArrow=block;html=1;rounded=0;endFill=0;strokeColor=#2D7600;fontFamily=Tahoma;fontSize=10;fillColor=light-dark(#357617, #4a890c);strokeWidth=2;shape=flexArrow;width=4.666666666666667;endSize=2.3333333333333335;endWidth=6.111111111111111;" parent="1" edge="1">
          <mxGeometry width="50" height="50" relative="1" as="geometry">
            <mxPoint x="-112" y="445" as="sourcePoint" />
            <mxPoint x="-132" y="445" as="targetPoint" />
          </mxGeometry>
        </mxCell>
        <mxCell id="DkNM_tWxz2CX9CRkzyKB-1" value="" style="rounded=0;whiteSpace=wrap;html=1;strokeColor=light-dark(#433737, #ededed);fontFamily=Tahoma;fontSize=10;shadow=1;" parent="1" vertex="1">
          <mxGeometry x="-110" y="230" width="646" height="480" as="geometry" />
        </mxCell>
        <mxCell id="DkNM_tWxz2CX9CRkzyKB-2" value="" style="shape=image;imageAspect=0;aspect=fixed;verticalLabelPosition=bottom;verticalAlign=top;image=data:image/png,iVBORw0KGgoAAAANSUhEUgAAACMAAAAjCAMAAAApB0NrAAAAjVBMVEUUfroVf7oWf7sZgbsfhL0ghb4jhr4oicAqisAri8Ezj8M8lMY9lcZCl8hKnMpbpc9gqNBiqdFmq9JorNNprdNqrdNrrtNystaEu9uFvNuGvdyMwN2izOSx1Oi01um72uvH4O7R5vHS5vLZ6vTc7PXg7vbi7/bi7/fk8Pfr9Pnw9/vy+Pv3+v35+/3///9DyekmAAAAAWJLR0QuVNMQhwAAAHBJREFUOMtjYBjKQFhZiqAaRSEdJkJqBHUlCFumzkqEGjVVFKDEiUUNDxcS4NPiJ2QXs4IkQffIyDESUiOizkLQXxwaAoT9zqvJTTh8RFXYsKmRk0UG2vJYokZdTBAVsJMZF6NqKFMjrgcC0gzDBQAA2QYNP1mNMIoAAAAASUVORK5CYII=;fontFamily=Tahoma;fontSize=10;" parent="1" vertex="1">
          <mxGeometry x="-110" y="230" width="35" height="35" as="geometry" />
        </mxCell>
        <mxCell id="DkNM_tWxz2CX9CRkzyKB-3" value="AWS Region" style="text;html=1;align=center;verticalAlign=middle;whiteSpace=wrap;rounded=0;fontFamily=Tahoma;fontSize=10;" parent="1" vertex="1">
          <mxGeometry x="-81" y="232.5" width="80" height="30" as="geometry" />
        </mxCell>
        <mxCell id="DkNM_tWxz2CX9CRkzyKB-5" value="" style="rounded=0;whiteSpace=wrap;html=1;strokeColor=light-dark(#613fbe, #ededed);fontFamily=Tahoma;fontSize=10;" parent="1" vertex="1">
          <mxGeometry x="-85" y="272" width="295" height="328" as="geometry" />
        </mxCell>
        <mxCell id="DkNM_tWxz2CX9CRkzyKB-4" value="" style="shape=image;imageAspect=0;aspect=fixed;verticalLabelPosition=bottom;verticalAlign=top;image=data:image/png,iVBORw0KGgoAAAANSUhEUgAAAEsAAABLCAIAAAC3LO29AAAABmJLR0QA/wD/AP+gvaeTAAAKGklEQVR42t3aiVeTxxYA8PmX3ta+trbPV59P2woKWLBqrVvdd1QU2cPmwiKgCCIVLCA+FBBUQECUxY2QBAlkXyD7CkkISdjenUyIQD3kI2Hp+XLu4QQOSb4f39yZuXdAURv6IC7g4F7cCNEPEf0dxMAlHLxL3/NicPBjf4AQQMRtghDG4xDFB4kSgsQQicEQEoikzVISjM0yxhZZ8hY5jhB5SsggRGrIUGoojrRQRVqYIj1MiWOr6rI7rmxVX/kRQnMVIlxzLVyLI0KX4Y7MCH3mNghDFsRPxmwS203XcZhzIHZADOdC7BzJ84QFRf33Aw76ItF5IqQvEoS99Eaic+t76Y0EIYfeSCKkMxKd/Q+H3kgQsumNRJFYSGckCFn0RqLIdSx6I9EZENIaCcKeZUKmbxcXnRsqiVGWxqoKTg+lb5OuChKd/rZnaZF5R2Wd1SaTxjX9h4da7Hx535S1V76SSBAylwqZuU8y8MY6NeXxTIxP6eROMWtUzLYbFC74lvx8cmKqp8lyZYdsZZBEuATI6hy1yzFJYKzmkbsxQwmbBbNzMjlMVJao6uuwTuHfmraZJ36PV68AEp36NzNwZGuFntwf3lvr1V3ihSee3MNyed8YuZnVWbrlRoKwO0DkszsauFwYnPUFGoqza0KwqKPKjF81OV2epFlWJDqJhf4jC89LJ92jripTtdglpKXUCC902ifzjyuWDwnC934jo7/v0w064Co7qo3+rZM9zy3wcpXIkbT54+yaFi5bQiQ6ufa938hH15VwfSatKza437/NQMqPEqMKryu113U3jyk4rVa7ZZKk6GC/oyZLD7wAkejE2nd+I1XiMff4VASy46lIUcObjNkmJ1ye5WTcOeVdQoXd9ssRg4EgsdA/5NW9fPeVTcQEcQPc1mllTjJXMRstN44MwXBNj5DX3zCMWfH9HOgaDWS4ouP/eucf8mG2Aj6e2zUS+N616qoGhmVDkWHetq7gpNI5hpH3k7V+I0H41j9kZ40BPvvpHfWSbNCTtog/uUFvKTXBp4iYdr8nHiL0B9n7ahg+uyJ9cFmrkGs/D8KaCfuk1K1y/5Do2Ddv/EOKWFYQ3mPIlrvU0g3iybYuzwDJ6QcSCxeFPLeBXZ2r0CscZK4rS5Evdz3Jbbd5tvKuKU6r7eZR5aKQHiFFJGN7n0JkJ59nt0501uovBfcud9GcuVveVmGWcsbIlh3mpNZ75pRQqkh09JvXFJGM7R8sRjxghvWu8nR51Eb2MnUG8g7La65rs/bJ5g3XnANDsJxMuxdLuLGpYZSQ6OjXr6kgI9czlWJ892RcW2xo73J0BlLCRbW5Wnm/nVSY8FXeP1aXp08Nl86eXX+P1zhGJ12Oqd8uqKkMV3Tk6y4qyNr8IfhUo9oZs4WzhEUzIOOC+WVJCm6X1Vsiw/5G0D0KBvKtawzSz3ovVuXdu96OVMFSSXHvioU+kae/7TZp8bajhCFZknqSILMPSV4+MEApTCRw00Ss0YcZGkaYCIYrI1T0IF0tZtm9TQOLYfxt3citk4pFVSHoyJoun8iMQ1wytZxZzwy8nowL7n9apNXIHN7Np0bqeFaku7xTRIZrfJAgY48EvpKJJ3uf/EW50aT+2PhR8B1P8g3JoZSQ6PCaTp/IB1kyeN++TnMgpZYX+fyejlyobXiis8aYd0zqzUlANhbrze4ulkHhbLqrv7xD4pldg0XFUUqYaSAJyctrr+up3Eks9ImsL8Jb0I5abSCllhfZ/hBv98AWs2mADNfYIF4ZQ8F/b/MOyPGZOgOSs6/dWhqjTAjyLCHJYRJuB14hG4uMVIYrOrSmwyfyWQmuA1sr1YGUWl4kEULLA3IyMYzXVmmwmMa9MM5LS/HFwfhgQVmSkvfWNum5YdPQnmwuMTJC8frxumaYCKl0BtChrzp8IiszpfCOPa1Gv0ut2cj2h3q3UA052VLmGbFauaO+QJsSIZi3hFzdJWm+ZzBrPUlYm6ODOzkjNFDpu7qFvpBZx7juhd4JsMCRRFiHhZ4R+6JCv/BmAKZWVssI/GbDbT3kZFcN7mI1YKHvDjo6+FW7T+SJtW+BB29aFCvwu570Il8R4S2VNyfdI9bHjqezGqueYaHQK6RyTIAOftlOBfm4cNCdDM4LQcwAkR+Fc3NyYeSMUBc3V+gTiQ58+YoK8tS6d2op3rUN8m2XQnsCQc4VfszJhZFwFjIjFHiEtw1UTrWwkCIyLpxl1jnd69j4g2xZ5IZu/5Be4bycXBjpFcKInRHqqRzdoQNfvKSOjN3aI2SNkGkNOij974bbqjRP7igeFww9LoRQ1M0JZf3t2aG6eUYESCJ8nK+al5MLI2cLZ+ekTyT6FYSLQR5f++a3RKGcZ5te/KPhrhru5MsqIlTOy8mFkUT4tFA3Lyd9IrFwsUiyhESHMIsThA9z5Y2lyuflKojmcvWs0LRUzA5ta4X2xmlhJBbqZoRzcnJhZOcjItTOy0mfSLT/iza/kf71eD4p9FlqdT7ChxxPsHDOiPWJRPv/2bbCSBircH1NpRpvTrqFPkqtzmqPEHKyqxYLnxRoqTSyQPhihZH/y8RLa1edAXKyrkAFz7ubTD7rSQlnFDcvUxWQk5w2PNtVpquoNLLQPixcUWTeKQFcn6TXBjmZcYAHz0dHJqI3fVgAmfKTAIoMCEY4bFwHZFy8MhdGyqk0stC+z1+sMPLCD2zol8Ficx73sthqKT7eeZSjWKBobirR4gOMN1ZSarmcWJsQIqDSrUN7P29deaSYg7vJxbESmHgqr+FBa1A63bfxE8jkCB60F/CuOEoOw7U4Wg7Ph3h2ii1JLFx5ZGUGvkrOKzNMPHAnNTJ8G1/XG/9Yal38ro/3Dv85BEwbyUl2K07C+lsain1XtPezlpVHRm9mwyiFij77KB+QWYf5pNEGyJjgj3cyKXyA22UhLaK0nXwYrlm/ikhCJkfwKTaX0R4Qrgay5T7+/wZZv+3sejYgi+MkpHNhNY8zm00t5Vp227DDPkl4eSdEMFwvbuyT9OIZ9XWdiXoHHQtXBXlhExtqMdyweazHW/N1rNyTAnKoPPsh5tiu7ReQnHxVhUsti3E8OZxHvYOOdn/WvFrIrCM88k9GPa2mS1t6AXl2PSvnuKDmhqKxRAOza+ZBPhmucSH9zGYzaeQUnpMu6pgA7f5H8yoi888Jx0YnyOCEvU7arv55pdaVPTzY/UC9Rv4v5W6sbLFnISB8vrrItN1ckXvxIA/r8LhCaBeyrEqRfdQy4f259IMt84DQjwMf9AsWrjLyzDrmzbMCGKvetqL3MWJ09bSYC6PE7vXDnwMf9Mvfm/4MSO9mIHHbh4yDvPxIIXxNjOAGfqqFdoHwT4Zc2qM7LKQ3Eu36WyO9kehnENIaCcIGeiPRTiykMxLt/GsDvZEgfEZvJNqBhXRGoh1/eUpvJNoOQlojsZDeSBA+oTfy/5rQF0tGrWTbAAAAAElFTkSuQmCC;fontFamily=Tahoma;fontSize=10;" parent="1" vertex="1">
          <mxGeometry x="-85" y="272" width="35" height="35" as="geometry" />
        </mxCell>
        <mxCell id="DkNM_tWxz2CX9CRkzyKB-6" value="Egress VPC" style="text;html=1;align=center;verticalAlign=middle;whiteSpace=wrap;rounded=0;fontFamily=Tahoma;fontSize=10;" parent="1" vertex="1">
          <mxGeometry x="-56" y="274.5" width="80" height="30" as="geometry" />
        </mxCell>
        <mxCell id="DkNM_tWxz2CX9CRkzyKB-9" value="" style="rounded=0;whiteSpace=wrap;html=1;dashed=1;dashPattern=8 8;fontFamily=Tahoma;fontSize=10;" parent="1" vertex="1">
          <mxGeometry x="-50" y="322" width="250" height="120" as="geometry" />
        </mxCell>
        <mxCell id="DkNM_tWxz2CX9CRkzyKB-12" value="Availability Zone 1" style="text;html=1;align=center;verticalAlign=middle;whiteSpace=wrap;rounded=0;fontFamily=Tahoma;fontSize=10;" parent="1" vertex="1">
          <mxGeometry x="7.75" y="320" width="142.5" height="30" as="geometry" />
        </mxCell>
        <mxCell id="DkNM_tWxz2CX9CRkzyKB-18" value="Egress Public" style="text;html=1;align=center;verticalAlign=middle;whiteSpace=wrap;rounded=0;fontFamily=Tahoma;fontSize=10;" parent="1" vertex="1">
          <mxGeometry x="-8" y="350" width="80" height="30" as="geometry" />
        </mxCell>
        <mxCell id="DkNM_tWxz2CX9CRkzyKB-24" value="" style="shape=image;imageAspect=0;aspect=fixed;verticalLabelPosition=bottom;verticalAlign=top;image=data:image/png,iVBORw0KGgoAAAANSUhEUgAAACMAAAAjCAYAAAAe2bNZAAAAAXNSR0IArs4c6QAAAARnQU1BAACxjwv8YQUAAAAJcEhZcwAADsQAAA7EAZUrDhsAAAABYktHRDynamHPAAABh2lUWHRYTUw6Y29tLmFkb2JlLnhtcAAAAAAAPD94cGFja2V0IGJlZ2luPSfvu78nIGlkPSdXNU0wTXBDZWhpSHpyZVN6TlRjemtjOWQnPz4NCjx4OnhtcG1ldGEgeG1sbnM6eD0iYWRvYmU6bnM6bWV0YS8iPjxyZGY6UkRGIHhtbG5zOnJkZj0iaHR0cDovL3d3dy53My5vcmcvMTk5OS8wMi8yMi1yZGYtc3ludGF4LW5zIyI+PHJkZjpEZXNjcmlwdGlvbiByZGY6YWJvdXQ9InV1aWQ6ZmFmNWJkZDUtYmEzZC0xMWRhLWFkMzEtZDMzZDc1MTgyZjFiIiB4bWxuczp0aWZmPSJodHRwOi8vbnMuYWRvYmUuY29tL3RpZmYvMS4wLyI+PHRpZmY6T3JpZW50YXRpb24+MTwvdGlmZjpPcmllbnRhdGlvbj48L3JkZjpEZXNjcmlwdGlvbj48L3JkZjpSREY+PC94OnhtcG1ldGE+DQo8P3hwYWNrZXQgZW5kPSd3Jz8+LJSYCwAAAmRJREFUWEftll9IU2EYh5/NnYmMrbZKEgotLGIUgRAJXdVVaEEwu1gI/VECawsipNCkVopEA4UGgTiWGWRUVKhl3UQ3YjdRBEHpTU6xSWwwEdfmXHeDfTL3nZ3152LP5ft7z+Hh5f3Od3TbXxxJ8Z+gFwv/kqJMNooy2dBpOU2nn95kzwEbFqtCNBzn83iEgKNDbJMmr8nU97YzqO/H5bVjshj4ORfDtE7B5bVzX99PfW+7+IgUeU1mqCyAwahjoHOSYXdXun70TjunOnYSjyVxxs5kPCOD6smcf9NN5S4TAU+mCMCwu4uA5xvb7GbOve7OyGRQPRl/oo9w6BetW9xilMY762P9JiPNxrNitCaqJ7Nhcymh6ZhYzuDH9yU2VpSK5Zyolikx6Ekur4jlDJLLK5QYVL9avcyfRGpn/Ik+LDYjANV7LcwHl4iGE2JbGotNoXxrGVOfogBEw3GalNz7IyUzUfOYt0/miIbjYpQTi83IwYYKaj8cF6NVSMv4Wr/wwHlNjHLS+NCD67ZdSkbzztT1tHFi8Dp1PW1ipBpNMk3POvEM1XDRt5sbj2poft4ptqhCk4zDVcWrgRn2vW9gxB/E4a4SW1ShScZsVZidWgRgZnIxfeLyRZPM+GiIxivVeGd8nLy6g/HRkNiiCk0ylysvMOKf5lhLJS/vBde8r2TQJANwa38rqVSKj+/CYqQazTKFpCAywa+LpMj57cxJQWQOTToZu6T+Z0pE+jqYGJtnIZL9csyG2apQe7hc6jqQkvFF7mK2KmJZmoVIApe1RSyvQkrmb1GQnSkURZlsFGWy8RtlpLwJSaXW5QAAAABJRU5ErkJggg==;fontFamily=Tahoma;fontSize=10;" parent="1" vertex="1">
          <mxGeometry x="-38" y="348" width="35" height="35" as="geometry" />
        </mxCell>
        <mxCell id="DkNM_tWxz2CX9CRkzyKB-25" value="" style="shape=image;imageAspect=0;aspect=fixed;verticalLabelPosition=bottom;verticalAlign=top;image=data:image/png,iVBORw0KGgoAAAANSUhEUgAAADIAAAAyCAMAAAAp4XiDAAACIlBMVEUAAAAAAP+AAP9VVaqAQL9mM8xVK9VtSbZgQL9xOcZmM8xqQL9iO8RtN8hmRMxwQL9pPMNjOcZrNsltPcJoOsVqQMpqPsFrOsVoQMdnPshmOcZqPsdoOsVsPsZnPMNoPsZrPcdpPMNnO8RqOsVoPcZrPMNpO8RqPsZoPcdqPMRpO8RpP8lrPsVpPcZoPMNqO8RoPsVrPcZpPMdnO8RpO8RpPcVoPMZqPMNrPcVqO8RpPMZqO8RoPcVqPMZpPMZoO8RpPcVoPMVqPMZqPcVpPcRqPcVqPMVpPMZoO8RpPcVoPMVqPcRpPcRpPMVoPMZpO8RpPcRqPMVpPMVoO8ZpPcRpO8ZqPcRoPMVpO8VpPcZqPMRpPMVoPMVpO8ZpPMVpPcRoPMVqPMVpO8VqPcZpPMRoPMVpPMVpPMVoPMVpPMVoO8VpPcZpPMRpO8VqPcVpPMRpPMVpPcVqPMZpPMVoPMVqPMRoO8VpPcVpPMZqPMVpPMRoPMVpO8VpPMVpPMZoO8VpPMVpPcVqPMVpPMZoPMVpO8VpPMVpPMVpPMRpPMZpPMVpPMVpPMZpPMVqPMVpPMVpPMVpPMVpPcVpPMVpPMVpPMZpO8VpPMVpPMVpPMVpPMVpPMVoPMRoPMVqPMVpPMVpPMVpPcVpPMVpPMVpPMVpPMVpPMVpPMVpPMRpPcRpPMVpPMVpPMVpPMVpPMVpPMVpPMVpPcVpPMVpPMVpPMX///9DMINlAAAAtHRSTlMAAQIDBAUGBwgJCgwNDg8QERITFRYYHR8gJSgpLC0vMTIzNDU2Nzg6Ozw9PT4/QEFCQ0RFSUtMTU9SVVdYWVpbXF1eYGRlamtsbW5xdXd4eXp7fH1+gYKEhYaHiImKjY+QkZKTlJWWmZqen6Cho6Slp6ipqquusLGyuru8vb6/wcPKy8zNzs/Q0dHT1NXW19jZ2tvc3d7f4OHi5OXm5ujp6+zt7vDx8vP09PX29/j5+vv8/f4u/LXaAAAAAWJLR0S1Mw5aSwAAA2ZJREFUSMetlv1DS1EYx++ttorZlJeEpFc1oqVQKEJRLVvpzZAmxERCRN5bpZpQ60VeJs0mldn9/oHO7su2u927+qHnh3Pvee7zuec553mecw5FrY1oMk+e1evPnsxUr8o8SmceYcALM9yWH7UCsLF+hlgu9HeZTSZzl/UP6cwYNRGAuHonMN6YoxAUitwmO+A0xsoR2o9A7wFarKQL+oAPuZIAbfRgJE/qS74Nnlo6XK/ohLdFIT284hIDS0yY9glchfKzPOzG4xCG7oQjnYqWZ7J+wCL2zYhf6VSi4+UWecYNvWitPF7iVSowmy3vG+PJCfRix9BMsQiWTssyl/ExEJ8LGFGwyLAZuKFILuGkWOym8j0M/ixxYh/FIlaqBqioElLsmXgYHeaFPK1HL8Uj2Z8xnVz4gJVe8gexPBeGiZpBPo84l/Bik2CQGoYcxBSX1wWw07wNcDOQAOEIbQeXUdfQwGmSsVgeZBCOUC1oZZ8j2MNrjuygIiP7Meh7qJkF6WwMQio71nEBXGQ2+DIB/UKFPWqIlkbseMExQ0gn7Ql08R92kQpLkESmgFfrfS8PUEraKrT5bUilp0kjc9w47agkrYHNL85m8jXcR6l4NSt78U7NyxS0E+w4LTgfgljjLGCKbyNUviJp2wzuCsi5IMesib34m3/dycpv/HPy8gVJeW5cFRwLTD8Vs3Z800rOpcyFblLJ3TguWmTf9PuTpKfvwT1fAAaRxoVSyX1IAW7FyS2ybwxK+cer4hKGL9CY1lMy0f+Eu2yQ8zDA9s1o5BO1PEsGKTZwadGMK3yxTXLJvx2eqohpSU8gN7TEgHvrIiA6obKoOjzlbX668WarPNLn38o089jP26SM4/tOOUSHOZXwXidsSlaydeDMsbes2EIQpQ01gc4YWljEdgfMxWj/pvRYhFzCaFAt5nq8Rdz0XSUUtTmNk93xwcQhZlkUg1q4MnzIeIrc9prhQrV4xS1wZGjsPQmyhAMdIaqYHriK5I+XQy48DDt9YkhxmSIcfB0S5xWt92D0gMzxulwt/bOcMbLZ60IPcR05xEez5DxWGuYBe5NW6VfsayZXhbkaRYT7hdowTYKzOHC/3WRq7x5YJB27XrXStSevdch/7fEOXNHSq7otbcgoq9TrK0rTVNTayH/8LHVKRUdIwQAAAABJRU5ErkJggg==;fontFamily=Tahoma;fontSize=10;" parent="1" vertex="1">
          <mxGeometry x="1" y="376" width="50" height="50" as="geometry" />
        </mxCell>
        <mxCell id="DkNM_tWxz2CX9CRkzyKB-26" value="" style="rounded=0;whiteSpace=wrap;html=1;dashed=1;dashPattern=8 8;fontFamily=Tahoma;fontSize=10;" parent="1" vertex="1">
          <mxGeometry x="-50" y="454" width="250" height="120" as="geometry" />
        </mxCell>
        <mxCell id="DkNM_tWxz2CX9CRkzyKB-27" value="Availability Zone 2" style="text;html=1;align=center;verticalAlign=middle;whiteSpace=wrap;rounded=0;fontFamily=Tahoma;fontSize=10;" parent="1" vertex="1">
          <mxGeometry x="7.75" y="452" width="142.5" height="30" as="geometry" />
        </mxCell>
        <mxCell id="DkNM_tWxz2CX9CRkzyKB-28" value="" style="rounded=0;whiteSpace=wrap;html=1;strokeColor=light-dark(#38b154, #ededed);fontFamily=Tahoma;fontSize=10;fillColor=none;" parent="1" vertex="1">
          <mxGeometry x="-38" y="480" width="108" height="80" as="geometry" />
        </mxCell>
        <mxCell id="DkNM_tWxz2CX9CRkzyKB-33" value="" style="shape=image;imageAspect=0;aspect=fixed;verticalLabelPosition=bottom;verticalAlign=top;image=data:image/png,iVBORw0KGgoAAAANSUhEUgAAACMAAAAjCAYAAAAe2bNZAAAAAXNSR0IArs4c6QAAAARnQU1BAACxjwv8YQUAAAAJcEhZcwAADsQAAA7EAZUrDhsAAAABYktHRDynamHPAAABh2lUWHRYTUw6Y29tLmFkb2JlLnhtcAAAAAAAPD94cGFja2V0IGJlZ2luPSfvu78nIGlkPSdXNU0wTXBDZWhpSHpyZVN6TlRjemtjOWQnPz4NCjx4OnhtcG1ldGEgeG1sbnM6eD0iYWRvYmU6bnM6bWV0YS8iPjxyZGY6UkRGIHhtbG5zOnJkZj0iaHR0cDovL3d3dy53My5vcmcvMTk5OS8wMi8yMi1yZGYtc3ludGF4LW5zIyI+PHJkZjpEZXNjcmlwdGlvbiByZGY6YWJvdXQ9InV1aWQ6ZmFmNWJkZDUtYmEzZC0xMWRhLWFkMzEtZDMzZDc1MTgyZjFiIiB4bWxuczp0aWZmPSJodHRwOi8vbnMuYWRvYmUuY29tL3RpZmYvMS4wLyI+PHRpZmY6T3JpZW50YXRpb24+MTwvdGlmZjpPcmllbnRhdGlvbj48L3JkZjpEZXNjcmlwdGlvbj48L3JkZjpSREY+PC94OnhtcG1ldGE+DQo8P3hwYWNrZXQgZW5kPSd3Jz8+LJSYCwAAAmRJREFUWEftll9IU2EYh5/NnYmMrbZKEgotLGIUgRAJXdVVaEEwu1gI/VECawsipNCkVopEA4UGgTiWGWRUVKhl3UQ3YjdRBEHpTU6xSWwwEdfmXHeDfTL3nZ3152LP5ft7z+Hh5f3Od3TbXxxJ8Z+gFwv/kqJMNooy2dBpOU2nn95kzwEbFqtCNBzn83iEgKNDbJMmr8nU97YzqO/H5bVjshj4ORfDtE7B5bVzX99PfW+7+IgUeU1mqCyAwahjoHOSYXdXun70TjunOnYSjyVxxs5kPCOD6smcf9NN5S4TAU+mCMCwu4uA5xvb7GbOve7OyGRQPRl/oo9w6BetW9xilMY762P9JiPNxrNitCaqJ7Nhcymh6ZhYzuDH9yU2VpSK5Zyolikx6Ekur4jlDJLLK5QYVL9avcyfRGpn/Ik+LDYjANV7LcwHl4iGE2JbGotNoXxrGVOfogBEw3GalNz7IyUzUfOYt0/miIbjYpQTi83IwYYKaj8cF6NVSMv4Wr/wwHlNjHLS+NCD67ZdSkbzztT1tHFi8Dp1PW1ipBpNMk3POvEM1XDRt5sbj2poft4ptqhCk4zDVcWrgRn2vW9gxB/E4a4SW1ShScZsVZidWgRgZnIxfeLyRZPM+GiIxivVeGd8nLy6g/HRkNiiCk0ylysvMOKf5lhLJS/vBde8r2TQJANwa38rqVSKj+/CYqQazTKFpCAywa+LpMj57cxJQWQOTToZu6T+Z0pE+jqYGJtnIZL9csyG2apQe7hc6jqQkvFF7mK2KmJZmoVIApe1RSyvQkrmb1GQnSkURZlsFGWy8RtlpLwJSaXW5QAAAABJRU5ErkJggg==;fontFamily=Tahoma;fontSize=10;" parent="1" vertex="1">
          <mxGeometry x="-38" y="480" width="35" height="35" as="geometry" />
        </mxCell>
        <mxCell id="DkNM_tWxz2CX9CRkzyKB-34" value="" style="shape=image;imageAspect=0;aspect=fixed;verticalLabelPosition=bottom;verticalAlign=top;image=data:image/png,iVBORw0KGgoAAAANSUhEUgAAADIAAAAyCAMAAAAp4XiDAAACIlBMVEUAAAAAAP+AAP9VVaqAQL9mM8xVK9VtSbZgQL9xOcZmM8xqQL9iO8RtN8hmRMxwQL9pPMNjOcZrNsltPcJoOsVqQMpqPsFrOsVoQMdnPshmOcZqPsdoOsVsPsZnPMNoPsZrPcdpPMNnO8RqOsVoPcZrPMNpO8RqPsZoPcdqPMRpO8RpP8lrPsVpPcZoPMNqO8RoPsVrPcZpPMdnO8RpO8RpPcVoPMZqPMNrPcVqO8RpPMZqO8RoPcVqPMZpPMZoO8RpPcVoPMVqPMZqPcVpPcRqPcVqPMVpPMZoO8RpPcVoPMVqPcRpPcRpPMVoPMZpO8RpPcRqPMVpPMVoO8ZpPcRpO8ZqPcRoPMVpO8VpPcZqPMRpPMVoPMVpO8ZpPMVpPcRoPMVqPMVpO8VqPcZpPMRoPMVpPMVpPMVoPMVpPMVoO8VpPcZpPMRpO8VqPcVpPMRpPMVpPcVqPMZpPMVoPMVqPMRoO8VpPcVpPMZqPMVpPMRoPMVpO8VpPMVpPMZoO8VpPMVpPcVqPMVpPMZoPMVpO8VpPMVpPMVpPMRpPMZpPMVpPMVpPMZpPMVqPMVpPMVpPMVpPMVpPcVpPMVpPMVpPMZpO8VpPMVpPMVpPMVpPMVpPMVoPMRoPMVqPMVpPMVpPMVpPcVpPMVpPMVpPMVpPMVpPMVpPMVpPMRpPcRpPMVpPMVpPMVpPMVpPMVpPMVpPMVpPcVpPMVpPMVpPMX///9DMINlAAAAtHRSTlMAAQIDBAUGBwgJCgwNDg8QERITFRYYHR8gJSgpLC0vMTIzNDU2Nzg6Ozw9PT4/QEFCQ0RFSUtMTU9SVVdYWVpbXF1eYGRlamtsbW5xdXd4eXp7fH1+gYKEhYaHiImKjY+QkZKTlJWWmZqen6Cho6Slp6ipqquusLGyuru8vb6/wcPKy8zNzs/Q0dHT1NXW19jZ2tvc3d7f4OHi5OXm5ujp6+zt7vDx8vP09PX29/j5+vv8/f4u/LXaAAAAAWJLR0S1Mw5aSwAAA2ZJREFUSMetlv1DS1EYx++ttorZlJeEpFc1oqVQKEJRLVvpzZAmxERCRN5bpZpQ60VeJs0mldn9/oHO7su2u927+qHnh3Pvee7zuec553mecw5FrY1oMk+e1evPnsxUr8o8SmceYcALM9yWH7UCsLF+hlgu9HeZTSZzl/UP6cwYNRGAuHonMN6YoxAUitwmO+A0xsoR2o9A7wFarKQL+oAPuZIAbfRgJE/qS74Nnlo6XK/ohLdFIT284hIDS0yY9glchfKzPOzG4xCG7oQjnYqWZ7J+wCL2zYhf6VSi4+UWecYNvWitPF7iVSowmy3vG+PJCfRix9BMsQiWTssyl/ExEJ8LGFGwyLAZuKFILuGkWOym8j0M/ixxYh/FIlaqBqioElLsmXgYHeaFPK1HL8Uj2Z8xnVz4gJVe8gexPBeGiZpBPo84l/Bik2CQGoYcxBSX1wWw07wNcDOQAOEIbQeXUdfQwGmSsVgeZBCOUC1oZZ8j2MNrjuygIiP7Meh7qJkF6WwMQio71nEBXGQ2+DIB/UKFPWqIlkbseMExQ0gn7Ql08R92kQpLkESmgFfrfS8PUEraKrT5bUilp0kjc9w47agkrYHNL85m8jXcR6l4NSt78U7NyxS0E+w4LTgfgljjLGCKbyNUviJp2wzuCsi5IMesib34m3/dycpv/HPy8gVJeW5cFRwLTD8Vs3Z800rOpcyFblLJ3TguWmTf9PuTpKfvwT1fAAaRxoVSyX1IAW7FyS2ybwxK+cer4hKGL9CY1lMy0f+Eu2yQ8zDA9s1o5BO1PEsGKTZwadGMK3yxTXLJvx2eqohpSU8gN7TEgHvrIiA6obKoOjzlbX668WarPNLn38o089jP26SM4/tOOUSHOZXwXidsSlaydeDMsbes2EIQpQ01gc4YWljEdgfMxWj/pvRYhFzCaFAt5nq8Rdz0XSUUtTmNk93xwcQhZlkUg1q4MnzIeIrc9prhQrV4xS1wZGjsPQmyhAMdIaqYHriK5I+XQy48DDt9YkhxmSIcfB0S5xWt92D0gMzxulwt/bOcMbLZ60IPcR05xEez5DxWGuYBe5NW6VfsayZXhbkaRYT7hdowTYKzOHC/3WRq7x5YJB27XrXStSevdch/7fEOXNHSq7otbcgoq9TrK0rTVNTayH/8LHVKRUdIwQAAAABJRU5ErkJggg==;fontFamily=Tahoma;fontSize=10;" parent="1" vertex="1">
          <mxGeometry x="1" y="508" width="50" height="50" as="geometry" />
        </mxCell>
        <mxCell id="DkNM_tWxz2CX9CRkzyKB-36" value="10.50.0.0/16" style="text;html=1;align=center;verticalAlign=middle;whiteSpace=wrap;rounded=0;fontFamily=Tahoma;fontSize=10;" parent="1" vertex="1">
          <mxGeometry x="136" y="573" width="80" height="30" as="geometry" />
        </mxCell>
        <mxCell id="DkNM_tWxz2CX9CRkzyKB-37" value="" style="shape=table;startSize=0;container=1;collapsible=0;childLayout=tableLayout;fontSize=10;fontFamily=Tahoma;" parent="1" vertex="1">
          <mxGeometry x="-71.5" y="606" width="141.5" height="100" as="geometry" />
        </mxCell>
        <mxCell id="DkNM_tWxz2CX9CRkzyKB-38" value="" style="shape=tableRow;horizontal=0;startSize=0;swimlaneHead=0;swimlaneBody=0;strokeColor=inherit;top=0;left=0;bottom=0;right=0;collapsible=0;dropTarget=0;fillColor=none;points=[[0,0.5],[1,0.5]];portConstraint=eastwest;fontFamily=Tahoma;fontSize=10;" parent="DkNM_tWxz2CX9CRkzyKB-37" vertex="1">
          <mxGeometry width="141.5" height="20" as="geometry" />
        </mxCell>
        <mxCell id="DkNM_tWxz2CX9CRkzyKB-39" value="CIDR" style="shape=partialRectangle;html=1;whiteSpace=wrap;connectable=0;strokeColor=light-dark(#000000, #73b14c);overflow=hidden;fillColor=#60a917;top=0;left=0;bottom=0;right=0;pointerEvents=1;fontColor=#ffffff;fontFamily=Tahoma;fontSize=10;" parent="DkNM_tWxz2CX9CRkzyKB-38" vertex="1">
          <mxGeometry width="87" height="20" as="geometry">
            <mxRectangle width="87" height="20" as="alternateBounds" />
          </mxGeometry>
        </mxCell>
        <mxCell id="DkNM_tWxz2CX9CRkzyKB-40" value="Next Hop" style="shape=partialRectangle;html=1;whiteSpace=wrap;connectable=0;strokeColor=#2D7600;overflow=hidden;fillColor=#60a917;top=0;left=0;bottom=0;right=0;pointerEvents=1;fontColor=#ffffff;fontFamily=Tahoma;fontSize=10;" parent="DkNM_tWxz2CX9CRkzyKB-38" vertex="1">
          <mxGeometry x="87" width="55" height="20" as="geometry">
            <mxRectangle width="55" height="20" as="alternateBounds" />
          </mxGeometry>
        </mxCell>
        <mxCell id="DkNM_tWxz2CX9CRkzyKB-41" value="" style="shape=tableRow;horizontal=0;startSize=0;swimlaneHead=0;swimlaneBody=0;strokeColor=inherit;top=0;left=0;bottom=0;right=0;collapsible=0;dropTarget=0;fillColor=none;points=[[0,0.5],[1,0.5]];portConstraint=eastwest;fontFamily=Tahoma;fontSize=10;" parent="DkNM_tWxz2CX9CRkzyKB-37" vertex="1">
          <mxGeometry y="20" width="141.5" height="20" as="geometry" />
        </mxCell>
        <mxCell id="DkNM_tWxz2CX9CRkzyKB-42" value="&lt;font&gt;10.50.0.0/16&lt;/font&gt;" style="shape=partialRectangle;html=1;whiteSpace=wrap;connectable=0;strokeColor=inherit;overflow=hidden;fillColor=none;top=0;left=0;bottom=0;right=0;pointerEvents=1;fontSize=10;align=left;fontFamily=Tahoma;" parent="DkNM_tWxz2CX9CRkzyKB-41" vertex="1">
          <mxGeometry width="87" height="20" as="geometry">
            <mxRectangle width="87" height="20" as="alternateBounds" />
          </mxGeometry>
        </mxCell>
        <mxCell id="DkNM_tWxz2CX9CRkzyKB-43" value="Local" style="shape=partialRectangle;html=1;whiteSpace=wrap;connectable=0;strokeColor=inherit;overflow=hidden;fillColor=none;top=0;left=0;bottom=0;right=0;pointerEvents=1;fontSize=10;align=left;fontFamily=Tahoma;" parent="DkNM_tWxz2CX9CRkzyKB-41" vertex="1">
          <mxGeometry x="87" width="55" height="20" as="geometry">
            <mxRectangle width="55" height="20" as="alternateBounds" />
          </mxGeometry>
        </mxCell>
        <mxCell id="DkNM_tWxz2CX9CRkzyKB-44" value="" style="shape=tableRow;horizontal=0;startSize=0;swimlaneHead=0;swimlaneBody=0;strokeColor=inherit;top=0;left=0;bottom=0;right=0;collapsible=0;dropTarget=0;fillColor=none;points=[[0,0.5],[1,0.5]];portConstraint=eastwest;fontFamily=Tahoma;fontSize=10;" parent="DkNM_tWxz2CX9CRkzyKB-37" vertex="1">
          <mxGeometry y="40" width="141.5" height="20" as="geometry" />
        </mxCell>
        <mxCell id="DkNM_tWxz2CX9CRkzyKB-45" value="0.0.0.0/0" style="shape=partialRectangle;html=1;whiteSpace=wrap;connectable=0;strokeColor=inherit;overflow=hidden;fillColor=none;top=0;left=0;bottom=0;right=0;pointerEvents=1;align=left;fontFamily=Tahoma;fontSize=10;" parent="DkNM_tWxz2CX9CRkzyKB-44" vertex="1">
          <mxGeometry width="87" height="20" as="geometry">
            <mxRectangle width="87" height="20" as="alternateBounds" />
          </mxGeometry>
        </mxCell>
        <mxCell id="DkNM_tWxz2CX9CRkzyKB-46" value="IGW" style="shape=partialRectangle;html=1;whiteSpace=wrap;connectable=0;strokeColor=inherit;overflow=hidden;fillColor=none;top=0;left=0;bottom=0;right=0;pointerEvents=1;align=left;fontFamily=Tahoma;fontSize=10;" parent="DkNM_tWxz2CX9CRkzyKB-44" vertex="1">
          <mxGeometry x="87" width="55" height="20" as="geometry">
            <mxRectangle width="55" height="20" as="alternateBounds" />
          </mxGeometry>
        </mxCell>
        <mxCell id="DkNM_tWxz2CX9CRkzyKB-47" value="" style="shape=tableRow;horizontal=0;startSize=0;swimlaneHead=0;swimlaneBody=0;strokeColor=inherit;top=0;left=0;bottom=0;right=0;collapsible=0;dropTarget=0;fillColor=none;points=[[0,0.5],[1,0.5]];portConstraint=eastwest;fontFamily=Tahoma;fontSize=10;" parent="DkNM_tWxz2CX9CRkzyKB-37" vertex="1">
          <mxGeometry y="60" width="141.5" height="20" as="geometry" />
        </mxCell>
        <mxCell id="DkNM_tWxz2CX9CRkzyKB-48" value="10.51.0.0/16" style="shape=partialRectangle;html=1;whiteSpace=wrap;connectable=0;strokeColor=inherit;overflow=hidden;fillColor=none;top=0;left=0;bottom=0;right=0;pointerEvents=1;align=left;fontFamily=Tahoma;fontSize=10;" parent="DkNM_tWxz2CX9CRkzyKB-47" vertex="1">
          <mxGeometry width="87" height="20" as="geometry">
            <mxRectangle width="87" height="20" as="alternateBounds" />
          </mxGeometry>
        </mxCell>
        <mxCell id="DkNM_tWxz2CX9CRkzyKB-49" value="TGW" style="shape=partialRectangle;html=1;whiteSpace=wrap;connectable=0;strokeColor=inherit;overflow=hidden;fillColor=none;top=0;left=0;bottom=0;right=0;pointerEvents=1;align=left;fontFamily=Tahoma;fontSize=10;" parent="DkNM_tWxz2CX9CRkzyKB-47" vertex="1">
          <mxGeometry x="87" width="55" height="20" as="geometry">
            <mxRectangle width="55" height="20" as="alternateBounds" />
          </mxGeometry>
        </mxCell>
        <mxCell id="DkNM_tWxz2CX9CRkzyKB-50" value="" style="shape=tableRow;horizontal=0;startSize=0;swimlaneHead=0;swimlaneBody=0;strokeColor=inherit;top=0;left=0;bottom=0;right=0;collapsible=0;dropTarget=0;fillColor=none;points=[[0,0.5],[1,0.5]];portConstraint=eastwest;fontFamily=Tahoma;fontSize=10;" parent="DkNM_tWxz2CX9CRkzyKB-37" vertex="1">
          <mxGeometry y="80" width="141.5" height="20" as="geometry" />
        </mxCell>
        <mxCell id="DkNM_tWxz2CX9CRkzyKB-51" value="10.52.0.0/16" style="shape=partialRectangle;html=1;whiteSpace=wrap;connectable=0;strokeColor=inherit;overflow=hidden;fillColor=none;top=0;left=0;bottom=0;right=0;pointerEvents=1;align=left;fontFamily=Tahoma;fontSize=10;" parent="DkNM_tWxz2CX9CRkzyKB-50" vertex="1">
          <mxGeometry width="87" height="20" as="geometry">
            <mxRectangle width="87" height="20" as="alternateBounds" />
          </mxGeometry>
        </mxCell>
        <mxCell id="DkNM_tWxz2CX9CRkzyKB-52" value="TGW" style="shape=partialRectangle;html=1;whiteSpace=wrap;connectable=0;strokeColor=inherit;overflow=hidden;fillColor=none;top=0;left=0;bottom=0;right=0;pointerEvents=1;align=left;fontFamily=Tahoma;fontSize=10;" parent="DkNM_tWxz2CX9CRkzyKB-50" vertex="1">
          <mxGeometry x="87" width="55" height="20" as="geometry">
            <mxRectangle width="55" height="20" as="alternateBounds" />
          </mxGeometry>
        </mxCell>
        <mxCell id="DkNM_tWxz2CX9CRkzyKB-70" value="" style="shape=image;imageAspect=0;aspect=fixed;verticalLabelPosition=bottom;verticalAlign=top;image=data:image/png,iVBORw0KGgoAAAANSUhEUgAAAEsAAABLCAIAAAC3LO29AAAABmJLR0QA/wD/AP+gvaeTAAAKGklEQVR42t3aiVeTxxYA8PmX3ta+trbPV59P2woKWLBqrVvdd1QU2cPmwiKgCCIVLCA+FBBUQECUxY2QBAlkXyD7CkkISdjenUyIQD3kI2Hp+XLu4QQOSb4f39yZuXdAURv6IC7g4F7cCNEPEf0dxMAlHLxL3/NicPBjf4AQQMRtghDG4xDFB4kSgsQQicEQEoikzVISjM0yxhZZ8hY5jhB5SsggRGrIUGoojrRQRVqYIj1MiWOr6rI7rmxVX/kRQnMVIlxzLVyLI0KX4Y7MCH3mNghDFsRPxmwS203XcZhzIHZADOdC7BzJ84QFRf33Aw76ItF5IqQvEoS99Eaic+t76Y0EIYfeSCKkMxKd/Q+H3kgQsumNRJFYSGckCFn0RqLIdSx6I9EZENIaCcKeZUKmbxcXnRsqiVGWxqoKTg+lb5OuChKd/rZnaZF5R2Wd1SaTxjX9h4da7Hx535S1V76SSBAylwqZuU8y8MY6NeXxTIxP6eROMWtUzLYbFC74lvx8cmKqp8lyZYdsZZBEuATI6hy1yzFJYKzmkbsxQwmbBbNzMjlMVJao6uuwTuHfmraZJ36PV68AEp36NzNwZGuFntwf3lvr1V3ihSee3MNyed8YuZnVWbrlRoKwO0DkszsauFwYnPUFGoqza0KwqKPKjF81OV2epFlWJDqJhf4jC89LJ92jripTtdglpKXUCC902ifzjyuWDwnC934jo7/v0w064Co7qo3+rZM9zy3wcpXIkbT54+yaFi5bQiQ6ufa938hH15VwfSatKza437/NQMqPEqMKryu113U3jyk4rVa7ZZKk6GC/oyZLD7wAkejE2nd+I1XiMff4VASy46lIUcObjNkmJ1ye5WTcOeVdQoXd9ssRg4EgsdA/5NW9fPeVTcQEcQPc1mllTjJXMRstN44MwXBNj5DX3zCMWfH9HOgaDWS4ouP/eucf8mG2Aj6e2zUS+N616qoGhmVDkWHetq7gpNI5hpH3k7V+I0H41j9kZ40BPvvpHfWSbNCTtog/uUFvKTXBp4iYdr8nHiL0B9n7ahg+uyJ9cFmrkGs/D8KaCfuk1K1y/5Do2Ddv/EOKWFYQ3mPIlrvU0g3iybYuzwDJ6QcSCxeFPLeBXZ2r0CscZK4rS5Evdz3Jbbd5tvKuKU6r7eZR5aKQHiFFJGN7n0JkJ59nt0501uovBfcud9GcuVveVmGWcsbIlh3mpNZ75pRQqkh09JvXFJGM7R8sRjxghvWu8nR51Eb2MnUG8g7La65rs/bJ5g3XnANDsJxMuxdLuLGpYZSQ6OjXr6kgI9czlWJ892RcW2xo73J0BlLCRbW5Wnm/nVSY8FXeP1aXp08Nl86eXX+P1zhGJ12Oqd8uqKkMV3Tk6y4qyNr8IfhUo9oZs4WzhEUzIOOC+WVJCm6X1Vsiw/5G0D0KBvKtawzSz3ovVuXdu96OVMFSSXHvioU+kae/7TZp8bajhCFZknqSILMPSV4+MEApTCRw00Ss0YcZGkaYCIYrI1T0IF0tZtm9TQOLYfxt3citk4pFVSHoyJoun8iMQ1wytZxZzwy8nowL7n9apNXIHN7Np0bqeFaku7xTRIZrfJAgY48EvpKJJ3uf/EW50aT+2PhR8B1P8g3JoZSQ6PCaTp/IB1kyeN++TnMgpZYX+fyejlyobXiis8aYd0zqzUlANhbrze4ulkHhbLqrv7xD4pldg0XFUUqYaSAJyctrr+up3Eks9ImsL8Jb0I5abSCllhfZ/hBv98AWs2mADNfYIF4ZQ8F/b/MOyPGZOgOSs6/dWhqjTAjyLCHJYRJuB14hG4uMVIYrOrSmwyfyWQmuA1sr1YGUWl4kEULLA3IyMYzXVmmwmMa9MM5LS/HFwfhgQVmSkvfWNum5YdPQnmwuMTJC8frxumaYCKl0BtChrzp8IiszpfCOPa1Gv0ut2cj2h3q3UA052VLmGbFauaO+QJsSIZi3hFzdJWm+ZzBrPUlYm6ODOzkjNFDpu7qFvpBZx7juhd4JsMCRRFiHhZ4R+6JCv/BmAKZWVssI/GbDbT3kZFcN7mI1YKHvDjo6+FW7T+SJtW+BB29aFCvwu570Il8R4S2VNyfdI9bHjqezGqueYaHQK6RyTIAOftlOBfm4cNCdDM4LQcwAkR+Fc3NyYeSMUBc3V+gTiQ58+YoK8tS6d2op3rUN8m2XQnsCQc4VfszJhZFwFjIjFHiEtw1UTrWwkCIyLpxl1jnd69j4g2xZ5IZu/5Be4bycXBjpFcKInRHqqRzdoQNfvKSOjN3aI2SNkGkNOij974bbqjRP7igeFww9LoRQ1M0JZf3t2aG6eUYESCJ8nK+al5MLI2cLZ+ekTyT6FYSLQR5f++a3RKGcZ5te/KPhrhru5MsqIlTOy8mFkUT4tFA3Lyd9IrFwsUiyhESHMIsThA9z5Y2lyuflKojmcvWs0LRUzA5ta4X2xmlhJBbqZoRzcnJhZOcjItTOy0mfSLT/iza/kf71eD4p9FlqdT7ChxxPsHDOiPWJRPv/2bbCSBircH1NpRpvTrqFPkqtzmqPEHKyqxYLnxRoqTSyQPhihZH/y8RLa1edAXKyrkAFz7ubTD7rSQlnFDcvUxWQk5w2PNtVpquoNLLQPixcUWTeKQFcn6TXBjmZcYAHz0dHJqI3fVgAmfKTAIoMCEY4bFwHZFy8MhdGyqk0stC+z1+sMPLCD2zol8Ficx73sthqKT7eeZSjWKBobirR4gOMN1ZSarmcWJsQIqDSrUN7P29deaSYg7vJxbESmHgqr+FBa1A63bfxE8jkCB60F/CuOEoOw7U4Wg7Ph3h2ii1JLFx5ZGUGvkrOKzNMPHAnNTJ8G1/XG/9Yal38ro/3Dv85BEwbyUl2K07C+lsain1XtPezlpVHRm9mwyiFij77KB+QWYf5pNEGyJjgj3cyKXyA22UhLaK0nXwYrlm/ikhCJkfwKTaX0R4Qrgay5T7+/wZZv+3sejYgi+MkpHNhNY8zm00t5Vp227DDPkl4eSdEMFwvbuyT9OIZ9XWdiXoHHQtXBXlhExtqMdyweazHW/N1rNyTAnKoPPsh5tiu7ReQnHxVhUsti3E8OZxHvYOOdn/WvFrIrCM88k9GPa2mS1t6AXl2PSvnuKDmhqKxRAOza+ZBPhmucSH9zGYzaeQUnpMu6pgA7f5H8yoi888Jx0YnyOCEvU7arv55pdaVPTzY/UC9Rv4v5W6sbLFnISB8vrrItN1ckXvxIA/r8LhCaBeyrEqRfdQy4f259IMt84DQjwMf9AsWrjLyzDrmzbMCGKvetqL3MWJ09bSYC6PE7vXDnwMf9Mvfm/4MSO9mIHHbh4yDvPxIIXxNjOAGfqqFdoHwT4Zc2qM7LKQ3Eu36WyO9kehnENIaCcIGeiPRTiykMxLt/GsDvZEgfEZvJNqBhXRGoh1/eUpvJNoOQlojsZDeSBA+oTfy/5rQF0tGrWTbAAAAAElFTkSuQmCC;fontFamily=Tahoma;fontSize=10;" parent="1" vertex="1">
          <mxGeometry x="285" y="271.5" width="35" height="35" as="geometry" />
        </mxCell>
        <mxCell id="DkNM_tWxz2CX9CRkzyKB-73" value="" style="shape=image;imageAspect=0;aspect=fixed;verticalLabelPosition=bottom;verticalAlign=top;image=data:image/png,iVBORw0KGgoAAAANSUhEUgAAAEsAAABLCAIAAAC3LO29AAAABmJLR0QA/wD/AP+gvaeTAAAKGklEQVR42t3aiVeTxxYA8PmX3ta+trbPV59P2woKWLBqrVvdd1QU2cPmwiKgCCIVLCA+FBBUQECUxY2QBAlkXyD7CkkISdjenUyIQD3kI2Hp+XLu4QQOSb4f39yZuXdAURv6IC7g4F7cCNEPEf0dxMAlHLxL3/NicPBjf4AQQMRtghDG4xDFB4kSgsQQicEQEoikzVISjM0yxhZZ8hY5jhB5SsggRGrIUGoojrRQRVqYIj1MiWOr6rI7rmxVX/kRQnMVIlxzLVyLI0KX4Y7MCH3mNghDFsRPxmwS203XcZhzIHZADOdC7BzJ84QFRf33Aw76ItF5IqQvEoS99Eaic+t76Y0EIYfeSCKkMxKd/Q+H3kgQsumNRJFYSGckCFn0RqLIdSx6I9EZENIaCcKeZUKmbxcXnRsqiVGWxqoKTg+lb5OuChKd/rZnaZF5R2Wd1SaTxjX9h4da7Hx535S1V76SSBAylwqZuU8y8MY6NeXxTIxP6eROMWtUzLYbFC74lvx8cmKqp8lyZYdsZZBEuATI6hy1yzFJYKzmkbsxQwmbBbNzMjlMVJao6uuwTuHfmraZJ36PV68AEp36NzNwZGuFntwf3lvr1V3ihSee3MNyed8YuZnVWbrlRoKwO0DkszsauFwYnPUFGoqza0KwqKPKjF81OV2epFlWJDqJhf4jC89LJ92jripTtdglpKXUCC902ifzjyuWDwnC934jo7/v0w064Co7qo3+rZM9zy3wcpXIkbT54+yaFi5bQiQ6ufa938hH15VwfSatKza437/NQMqPEqMKryu113U3jyk4rVa7ZZKk6GC/oyZLD7wAkejE2nd+I1XiMff4VASy46lIUcObjNkmJ1ye5WTcOeVdQoXd9ssRg4EgsdA/5NW9fPeVTcQEcQPc1mllTjJXMRstN44MwXBNj5DX3zCMWfH9HOgaDWS4ouP/eucf8mG2Aj6e2zUS+N616qoGhmVDkWHetq7gpNI5hpH3k7V+I0H41j9kZ40BPvvpHfWSbNCTtog/uUFvKTXBp4iYdr8nHiL0B9n7ahg+uyJ9cFmrkGs/D8KaCfuk1K1y/5Do2Ddv/EOKWFYQ3mPIlrvU0g3iybYuzwDJ6QcSCxeFPLeBXZ2r0CscZK4rS5Evdz3Jbbd5tvKuKU6r7eZR5aKQHiFFJGN7n0JkJ59nt0501uovBfcud9GcuVveVmGWcsbIlh3mpNZ75pRQqkh09JvXFJGM7R8sRjxghvWu8nR51Eb2MnUG8g7La65rs/bJ5g3XnANDsJxMuxdLuLGpYZSQ6OjXr6kgI9czlWJ892RcW2xo73J0BlLCRbW5Wnm/nVSY8FXeP1aXp08Nl86eXX+P1zhGJ12Oqd8uqKkMV3Tk6y4qyNr8IfhUo9oZs4WzhEUzIOOC+WVJCm6X1Vsiw/5G0D0KBvKtawzSz3ovVuXdu96OVMFSSXHvioU+kae/7TZp8bajhCFZknqSILMPSV4+MEApTCRw00Ss0YcZGkaYCIYrI1T0IF0tZtm9TQOLYfxt3citk4pFVSHoyJoun8iMQ1wytZxZzwy8nowL7n9apNXIHN7Np0bqeFaku7xTRIZrfJAgY48EvpKJJ3uf/EW50aT+2PhR8B1P8g3JoZSQ6PCaTp/IB1kyeN++TnMgpZYX+fyejlyobXiis8aYd0zqzUlANhbrze4ulkHhbLqrv7xD4pldg0XFUUqYaSAJyctrr+up3Eks9ImsL8Jb0I5abSCllhfZ/hBv98AWs2mADNfYIF4ZQ8F/b/MOyPGZOgOSs6/dWhqjTAjyLCHJYRJuB14hG4uMVIYrOrSmwyfyWQmuA1sr1YGUWl4kEULLA3IyMYzXVmmwmMa9MM5LS/HFwfhgQVmSkvfWNum5YdPQnmwuMTJC8frxumaYCKl0BtChrzp8IiszpfCOPa1Gv0ut2cj2h3q3UA052VLmGbFauaO+QJsSIZi3hFzdJWm+ZzBrPUlYm6ODOzkjNFDpu7qFvpBZx7juhd4JsMCRRFiHhZ4R+6JCv/BmAKZWVssI/GbDbT3kZFcN7mI1YKHvDjo6+FW7T+SJtW+BB29aFCvwu570Il8R4S2VNyfdI9bHjqezGqueYaHQK6RyTIAOftlOBfm4cNCdDM4LQcwAkR+Fc3NyYeSMUBc3V+gTiQ58+YoK8tS6d2op3rUN8m2XQnsCQc4VfszJhZFwFjIjFHiEtw1UTrWwkCIyLpxl1jnd69j4g2xZ5IZu/5Be4bycXBjpFcKInRHqqRzdoQNfvKSOjN3aI2SNkGkNOij974bbqjRP7igeFww9LoRQ1M0JZf3t2aG6eUYESCJ8nK+al5MLI2cLZ+ekTyT6FYSLQR5f++a3RKGcZ5te/KPhrhru5MsqIlTOy8mFkUT4tFA3Lyd9IrFwsUiyhESHMIsThA9z5Y2lyuflKojmcvWs0LRUzA5ta4X2xmlhJBbqZoRzcnJhZOcjItTOy0mfSLT/iza/kf71eD4p9FlqdT7ChxxPsHDOiPWJRPv/2bbCSBircH1NpRpvTrqFPkqtzmqPEHKyqxYLnxRoqTSyQPhihZH/y8RLa1edAXKyrkAFz7ubTD7rSQlnFDcvUxWQk5w2PNtVpquoNLLQPixcUWTeKQFcn6TXBjmZcYAHz0dHJqI3fVgAmfKTAIoMCEY4bFwHZFy8MhdGyqk0stC+z1+sMPLCD2zol8Ficx73sthqKT7eeZSjWKBobirR4gOMN1ZSarmcWJsQIqDSrUN7P29deaSYg7vJxbESmHgqr+FBa1A63bfxE8jkCB60F/CuOEoOw7U4Wg7Ph3h2ii1JLFx5ZGUGvkrOKzNMPHAnNTJ8G1/XG/9Yal38ro/3Dv85BEwbyUl2K07C+lsain1XtPezlpVHRm9mwyiFij77KB+QWYf5pNEGyJjgj3cyKXyA22UhLaK0nXwYrlm/ikhCJkfwKTaX0R4Qrgay5T7+/wZZv+3sejYgi+MkpHNhNY8zm00t5Vp227DDPkl4eSdEMFwvbuyT9OIZ9XWdiXoHHQtXBXlhExtqMdyweazHW/N1rNyTAnKoPPsh5tiu7ReQnHxVhUsti3E8OZxHvYOOdn/WvFrIrCM88k9GPa2mS1t6AXl2PSvnuKDmhqKxRAOza+ZBPhmucSH9zGYzaeQUnpMu6pgA7f5H8yoi888Jx0YnyOCEvU7arv55pdaVPTzY/UC9Rv4v5W6sbLFnISB8vrrItN1ckXvxIA/r8LhCaBeyrEqRfdQy4f259IMt84DQjwMf9AsWrjLyzDrmzbMCGKvetqL3MWJ09bSYC6PE7vXDnwMf9Mvfm/4MSO9mIHHbh4yDvPxIIXxNjOAGfqqFdoHwT4Zc2qM7LKQ3Eu36WyO9kehnENIaCcIGeiPRTiykMxLt/GsDvZEgfEZvJNqBhXRGoh1/eUpvJNoOQlojsZDeSBA+oTfy/5rQF0tGrWTbAAAAAElFTkSuQmCC;fontFamily=Tahoma;fontSize=10;" parent="1" vertex="1">
          <mxGeometry x="282" y="553.5" width="35" height="35" as="geometry" />
        </mxCell>
        <mxCell id="DkNM_tWxz2CX9CRkzyKB-74" value="APP VPC 1" style="text;html=1;align=center;verticalAlign=middle;whiteSpace=wrap;rounded=0;fontFamily=Tahoma;fontSize=10;" parent="1" vertex="1">
          <mxGeometry x="309" y="274" width="80" height="30" as="geometry" />
        </mxCell>
        <mxCell id="DkNM_tWxz2CX9CRkzyKB-75" value="APP VPC 2" style="text;html=1;align=center;verticalAlign=middle;whiteSpace=wrap;rounded=0;fontFamily=Tahoma;fontSize=10;" parent="1" vertex="1">
          <mxGeometry x="310" y="556" width="80" height="30" as="geometry" />
        </mxCell>
        <mxCell id="DkNM_tWxz2CX9CRkzyKB-76" value="10.51.0.0/16" style="text;html=1;align=center;verticalAlign=middle;whiteSpace=wrap;rounded=0;fontFamily=Tahoma;fontSize=10;" parent="1" vertex="1">
          <mxGeometry x="331.5" y="373" width="80" height="30" as="geometry" />
        </mxCell>
        <mxCell id="DkNM_tWxz2CX9CRkzyKB-77" value="10.52.0.0/16" style="text;html=1;align=center;verticalAlign=middle;whiteSpace=wrap;rounded=0;fontFamily=Tahoma;fontSize=10;" parent="1" vertex="1">
          <mxGeometry x="331.5" y="653" width="80" height="30" as="geometry" />
        </mxCell>
        <mxCell id="DkNM_tWxz2CX9CRkzyKB-112" value="" style="shape=table;startSize=0;container=1;collapsible=0;childLayout=tableLayout;fontFamily=Tahoma;fontSize=10;" parent="1" vertex="1">
          <mxGeometry x="84" y="606" width="125.5" height="60" as="geometry" />
        </mxCell>
        <mxCell id="DkNM_tWxz2CX9CRkzyKB-113" value="" style="shape=tableRow;horizontal=0;startSize=0;swimlaneHead=0;swimlaneBody=0;strokeColor=inherit;top=0;left=0;bottom=0;right=0;collapsible=0;dropTarget=0;fillColor=none;points=[[0,0.5],[1,0.5]];portConstraint=eastwest;fontFamily=Tahoma;fontSize=10;" parent="DkNM_tWxz2CX9CRkzyKB-112" vertex="1">
          <mxGeometry width="125.5" height="20" as="geometry" />
        </mxCell>
        <mxCell id="DkNM_tWxz2CX9CRkzyKB-114" value="CIDR" style="shape=partialRectangle;html=1;whiteSpace=wrap;connectable=0;strokeColor=#3700CC;overflow=hidden;fillColor=#6a00ff;top=0;left=0;bottom=0;right=0;pointerEvents=1;fontColor=#ffffff;fontFamily=Tahoma;fontSize=10;" parent="DkNM_tWxz2CX9CRkzyKB-113" vertex="1">
          <mxGeometry width="69" height="20" as="geometry">
            <mxRectangle width="69" height="20" as="alternateBounds" />
          </mxGeometry>
        </mxCell>
        <mxCell id="DkNM_tWxz2CX9CRkzyKB-115" value="Next Hop" style="shape=partialRectangle;html=1;whiteSpace=wrap;connectable=0;strokeColor=#3700CC;overflow=hidden;fillColor=#6a00ff;top=0;left=0;bottom=0;right=0;pointerEvents=1;fontColor=#ffffff;fontFamily=Tahoma;fontSize=10;" parent="DkNM_tWxz2CX9CRkzyKB-113" vertex="1">
          <mxGeometry x="69" width="57" height="20" as="geometry">
            <mxRectangle width="57" height="20" as="alternateBounds" />
          </mxGeometry>
        </mxCell>
        <mxCell id="DkNM_tWxz2CX9CRkzyKB-116" value="" style="shape=tableRow;horizontal=0;startSize=0;swimlaneHead=0;swimlaneBody=0;strokeColor=inherit;top=0;left=0;bottom=0;right=0;collapsible=0;dropTarget=0;fillColor=none;points=[[0,0.5],[1,0.5]];portConstraint=eastwest;fontFamily=Tahoma;fontSize=10;" parent="DkNM_tWxz2CX9CRkzyKB-112" vertex="1">
          <mxGeometry y="20" width="125.5" height="20" as="geometry" />
        </mxCell>
        <mxCell id="DkNM_tWxz2CX9CRkzyKB-117" value="&lt;span&gt;10.50.0.0/16&lt;/span&gt;" style="shape=partialRectangle;html=1;whiteSpace=wrap;connectable=0;strokeColor=inherit;overflow=hidden;fillColor=none;top=0;left=0;bottom=0;right=0;pointerEvents=1;fontFamily=Tahoma;fontSize=10;align=left;" parent="DkNM_tWxz2CX9CRkzyKB-116" vertex="1">
          <mxGeometry width="69" height="20" as="geometry">
            <mxRectangle width="69" height="20" as="alternateBounds" />
          </mxGeometry>
        </mxCell>
        <mxCell id="DkNM_tWxz2CX9CRkzyKB-118" value="Local" style="shape=partialRectangle;html=1;whiteSpace=wrap;connectable=0;strokeColor=inherit;overflow=hidden;fillColor=none;top=0;left=0;bottom=0;right=0;pointerEvents=1;align=left;fontFamily=Tahoma;fontSize=10;" parent="DkNM_tWxz2CX9CRkzyKB-116" vertex="1">
          <mxGeometry x="69" width="57" height="20" as="geometry">
            <mxRectangle width="57" height="20" as="alternateBounds" />
          </mxGeometry>
        </mxCell>
        <mxCell id="DkNM_tWxz2CX9CRkzyKB-119" value="" style="shape=tableRow;horizontal=0;startSize=0;swimlaneHead=0;swimlaneBody=0;strokeColor=inherit;top=0;left=0;bottom=0;right=0;collapsible=0;dropTarget=0;fillColor=none;points=[[0,0.5],[1,0.5]];portConstraint=eastwest;fontFamily=Tahoma;fontSize=10;" parent="DkNM_tWxz2CX9CRkzyKB-112" vertex="1">
          <mxGeometry y="40" width="125.5" height="20" as="geometry" />
        </mxCell>
        <mxCell id="DkNM_tWxz2CX9CRkzyKB-120" value="0.0.0.0/0" style="shape=partialRectangle;html=1;whiteSpace=wrap;connectable=0;strokeColor=inherit;overflow=hidden;fillColor=none;top=0;left=0;bottom=0;right=0;pointerEvents=1;align=left;fontFamily=Tahoma;fontSize=10;" parent="DkNM_tWxz2CX9CRkzyKB-119" vertex="1">
          <mxGeometry width="69" height="20" as="geometry">
            <mxRectangle width="69" height="20" as="alternateBounds" />
          </mxGeometry>
        </mxCell>
        <mxCell id="DkNM_tWxz2CX9CRkzyKB-121" value="NAT" style="shape=partialRectangle;html=1;whiteSpace=wrap;connectable=0;strokeColor=inherit;overflow=hidden;fillColor=none;top=0;left=0;bottom=0;right=0;pointerEvents=1;align=left;fontFamily=Tahoma;fontSize=10;" parent="DkNM_tWxz2CX9CRkzyKB-119" vertex="1">
          <mxGeometry x="69" width="57" height="20" as="geometry">
            <mxRectangle width="57" height="20" as="alternateBounds" />
          </mxGeometry>
        </mxCell>
        <mxCell id="DkNM_tWxz2CX9CRkzyKB-122" value="" style="shape=table;startSize=0;container=1;collapsible=0;childLayout=tableLayout;fontFamily=Tahoma;fontSize=10;" parent="1" vertex="1">
          <mxGeometry x="415.5" y="271.5" width="115" height="60" as="geometry" />
        </mxCell>
        <mxCell id="DkNM_tWxz2CX9CRkzyKB-123" value="" style="shape=tableRow;horizontal=0;startSize=0;swimlaneHead=0;swimlaneBody=0;strokeColor=inherit;top=0;left=0;bottom=0;right=0;collapsible=0;dropTarget=0;fillColor=none;points=[[0,0.5],[1,0.5]];portConstraint=eastwest;fontFamily=Tahoma;fontSize=10;" parent="DkNM_tWxz2CX9CRkzyKB-122" vertex="1">
          <mxGeometry width="115" height="20" as="geometry" />
        </mxCell>
        <mxCell id="DkNM_tWxz2CX9CRkzyKB-124" value="CIDR" style="shape=partialRectangle;html=1;whiteSpace=wrap;connectable=0;strokeColor=#3700CC;overflow=hidden;fillColor=#6a00ff;top=0;left=0;bottom=0;right=0;pointerEvents=1;fontColor=#ffffff;fontFamily=Tahoma;fontSize=10;" parent="DkNM_tWxz2CX9CRkzyKB-123" vertex="1">
          <mxGeometry width="62" height="20" as="geometry">
            <mxRectangle width="62" height="20" as="alternateBounds" />
          </mxGeometry>
        </mxCell>
        <mxCell id="DkNM_tWxz2CX9CRkzyKB-125" value="Next Hop" style="shape=partialRectangle;html=1;whiteSpace=wrap;connectable=0;strokeColor=#3700CC;overflow=hidden;fillColor=#6a00ff;top=0;left=0;bottom=0;right=0;pointerEvents=1;fontColor=#ffffff;fontFamily=Tahoma;fontSize=10;" parent="DkNM_tWxz2CX9CRkzyKB-123" vertex="1">
          <mxGeometry x="62" width="53" height="20" as="geometry">
            <mxRectangle width="53" height="20" as="alternateBounds" />
          </mxGeometry>
        </mxCell>
        <mxCell id="DkNM_tWxz2CX9CRkzyKB-126" value="" style="shape=tableRow;horizontal=0;startSize=0;swimlaneHead=0;swimlaneBody=0;strokeColor=inherit;top=0;left=0;bottom=0;right=0;collapsible=0;dropTarget=0;fillColor=none;points=[[0,0.5],[1,0.5]];portConstraint=eastwest;fontFamily=Tahoma;fontSize=10;" parent="DkNM_tWxz2CX9CRkzyKB-122" vertex="1">
          <mxGeometry y="20" width="115" height="20" as="geometry" />
        </mxCell>
        <mxCell id="DkNM_tWxz2CX9CRkzyKB-127" value="&lt;span&gt;10.51.0.0/16&lt;/span&gt;" style="shape=partialRectangle;html=1;whiteSpace=wrap;connectable=0;strokeColor=inherit;overflow=hidden;fillColor=none;top=0;left=0;bottom=0;right=0;pointerEvents=1;align=left;fontFamily=Tahoma;fontSize=10;" parent="DkNM_tWxz2CX9CRkzyKB-126" vertex="1">
          <mxGeometry width="62" height="20" as="geometry">
            <mxRectangle width="62" height="20" as="alternateBounds" />
          </mxGeometry>
        </mxCell>
        <mxCell id="DkNM_tWxz2CX9CRkzyKB-128" value="Local" style="shape=partialRectangle;html=1;whiteSpace=wrap;connectable=0;strokeColor=inherit;overflow=hidden;fillColor=none;top=0;left=0;bottom=0;right=0;pointerEvents=1;align=left;fontFamily=Tahoma;fontSize=10;" parent="DkNM_tWxz2CX9CRkzyKB-126" vertex="1">
          <mxGeometry x="62" width="53" height="20" as="geometry">
            <mxRectangle width="53" height="20" as="alternateBounds" />
          </mxGeometry>
        </mxCell>
        <mxCell id="DkNM_tWxz2CX9CRkzyKB-129" value="" style="shape=tableRow;horizontal=0;startSize=0;swimlaneHead=0;swimlaneBody=0;strokeColor=inherit;top=0;left=0;bottom=0;right=0;collapsible=0;dropTarget=0;fillColor=none;points=[[0,0.5],[1,0.5]];portConstraint=eastwest;fontFamily=Tahoma;fontSize=10;" parent="DkNM_tWxz2CX9CRkzyKB-122" vertex="1">
          <mxGeometry y="40" width="115" height="20" as="geometry" />
        </mxCell>
        <mxCell id="DkNM_tWxz2CX9CRkzyKB-130" value="0.0.0.0/0" style="shape=partialRectangle;html=1;whiteSpace=wrap;connectable=0;strokeColor=inherit;overflow=hidden;fillColor=none;top=0;left=0;bottom=0;right=0;pointerEvents=1;align=left;fontFamily=Tahoma;fontSize=10;" parent="DkNM_tWxz2CX9CRkzyKB-129" vertex="1">
          <mxGeometry width="62" height="20" as="geometry">
            <mxRectangle width="62" height="20" as="alternateBounds" />
          </mxGeometry>
        </mxCell>
        <mxCell id="DkNM_tWxz2CX9CRkzyKB-131" value="TGW" style="shape=partialRectangle;html=1;whiteSpace=wrap;connectable=0;strokeColor=inherit;overflow=hidden;fillColor=none;top=0;left=0;bottom=0;right=0;pointerEvents=1;align=left;fontFamily=Tahoma;fontSize=10;" parent="DkNM_tWxz2CX9CRkzyKB-129" vertex="1">
          <mxGeometry x="62" width="53" height="20" as="geometry">
            <mxRectangle width="53" height="20" as="alternateBounds" />
          </mxGeometry>
        </mxCell>
        <mxCell id="0ixl7kUn-2Kp-ZEXlMbW-9" style="edgeStyle=orthogonalEdgeStyle;rounded=0;orthogonalLoop=1;jettySize=auto;html=1;exitX=1;exitY=0.5;exitDx=0;exitDy=0;" parent="DkNM_tWxz2CX9CRkzyKB-122" source="DkNM_tWxz2CX9CRkzyKB-126" target="DkNM_tWxz2CX9CRkzyKB-126" edge="1">
          <mxGeometry relative="1" as="geometry" />
        </mxCell>
        <mxCell id="DkNM_tWxz2CX9CRkzyKB-132" value="" style="shape=table;startSize=0;container=1;collapsible=0;childLayout=tableLayout;fontFamily=Tahoma;fontSize=10;" parent="1" vertex="1">
          <mxGeometry x="416" y="553.5" width="115" height="60" as="geometry" />
        </mxCell>
        <mxCell id="DkNM_tWxz2CX9CRkzyKB-133" value="" style="shape=tableRow;horizontal=0;startSize=0;swimlaneHead=0;swimlaneBody=0;strokeColor=inherit;top=0;left=0;bottom=0;right=0;collapsible=0;dropTarget=0;fillColor=none;points=[[0,0.5],[1,0.5]];portConstraint=eastwest;fontFamily=Tahoma;fontSize=10;" parent="DkNM_tWxz2CX9CRkzyKB-132" vertex="1">
          <mxGeometry width="115" height="20" as="geometry" />
        </mxCell>
        <mxCell id="DkNM_tWxz2CX9CRkzyKB-134" value="CIDR" style="shape=partialRectangle;html=1;whiteSpace=wrap;connectable=0;strokeColor=#3700CC;overflow=hidden;fillColor=#6a00ff;top=0;left=0;bottom=0;right=0;pointerEvents=1;fontColor=#ffffff;fontFamily=Tahoma;fontSize=10;" parent="DkNM_tWxz2CX9CRkzyKB-133" vertex="1">
          <mxGeometry width="62" height="20" as="geometry">
            <mxRectangle width="62" height="20" as="alternateBounds" />
          </mxGeometry>
        </mxCell>
        <mxCell id="DkNM_tWxz2CX9CRkzyKB-135" value="Next Hop" style="shape=partialRectangle;html=1;whiteSpace=wrap;connectable=0;strokeColor=#3700CC;overflow=hidden;fillColor=#6a00ff;top=0;left=0;bottom=0;right=0;pointerEvents=1;fontColor=#ffffff;fontFamily=Tahoma;fontSize=10;" parent="DkNM_tWxz2CX9CRkzyKB-133" vertex="1">
          <mxGeometry x="62" width="53" height="20" as="geometry">
            <mxRectangle width="53" height="20" as="alternateBounds" />
          </mxGeometry>
        </mxCell>
        <mxCell id="DkNM_tWxz2CX9CRkzyKB-136" value="" style="shape=tableRow;horizontal=0;startSize=0;swimlaneHead=0;swimlaneBody=0;strokeColor=inherit;top=0;left=0;bottom=0;right=0;collapsible=0;dropTarget=0;fillColor=none;points=[[0,0.5],[1,0.5]];portConstraint=eastwest;fontFamily=Tahoma;fontSize=10;" parent="DkNM_tWxz2CX9CRkzyKB-132" vertex="1">
          <mxGeometry y="20" width="115" height="20" as="geometry" />
        </mxCell>
        <mxCell id="DkNM_tWxz2CX9CRkzyKB-137" value="&lt;span&gt;10.52.0.0/16&lt;/span&gt;" style="shape=partialRectangle;html=1;whiteSpace=wrap;connectable=0;strokeColor=inherit;overflow=hidden;fillColor=none;top=0;left=0;bottom=0;right=0;pointerEvents=1;align=left;fontFamily=Tahoma;fontSize=10;" parent="DkNM_tWxz2CX9CRkzyKB-136" vertex="1">
          <mxGeometry width="62" height="20" as="geometry">
            <mxRectangle width="62" height="20" as="alternateBounds" />
          </mxGeometry>
        </mxCell>
        <mxCell id="DkNM_tWxz2CX9CRkzyKB-138" value="Local" style="shape=partialRectangle;html=1;whiteSpace=wrap;connectable=0;strokeColor=inherit;overflow=hidden;fillColor=none;top=0;left=0;bottom=0;right=0;pointerEvents=1;align=left;fontFamily=Tahoma;fontSize=10;" parent="DkNM_tWxz2CX9CRkzyKB-136" vertex="1">
          <mxGeometry x="62" width="53" height="20" as="geometry">
            <mxRectangle width="53" height="20" as="alternateBounds" />
          </mxGeometry>
        </mxCell>
        <mxCell id="DkNM_tWxz2CX9CRkzyKB-139" value="" style="shape=tableRow;horizontal=0;startSize=0;swimlaneHead=0;swimlaneBody=0;strokeColor=inherit;top=0;left=0;bottom=0;right=0;collapsible=0;dropTarget=0;fillColor=none;points=[[0,0.5],[1,0.5]];portConstraint=eastwest;fontFamily=Tahoma;fontSize=10;" parent="DkNM_tWxz2CX9CRkzyKB-132" vertex="1">
          <mxGeometry y="40" width="115" height="20" as="geometry" />
        </mxCell>
        <mxCell id="DkNM_tWxz2CX9CRkzyKB-140" value="0.0.0.0/0" style="shape=partialRectangle;html=1;whiteSpace=wrap;connectable=0;strokeColor=inherit;overflow=hidden;fillColor=none;top=0;left=0;bottom=0;right=0;pointerEvents=1;align=left;fontFamily=Tahoma;fontSize=10;" parent="DkNM_tWxz2CX9CRkzyKB-139" vertex="1">
          <mxGeometry width="62" height="20" as="geometry">
            <mxRectangle width="62" height="20" as="alternateBounds" />
          </mxGeometry>
        </mxCell>
        <mxCell id="DkNM_tWxz2CX9CRkzyKB-141" value="TGW" style="shape=partialRectangle;html=1;whiteSpace=wrap;connectable=0;strokeColor=inherit;overflow=hidden;fillColor=none;top=0;left=0;bottom=0;right=0;pointerEvents=1;align=left;fontFamily=Tahoma;fontSize=10;" parent="DkNM_tWxz2CX9CRkzyKB-139" vertex="1">
          <mxGeometry x="62" width="53" height="20" as="geometry">
            <mxRectangle width="53" height="20" as="alternateBounds" />
          </mxGeometry>
        </mxCell>
        <mxCell id="DkNM_tWxz2CX9CRkzyKB-142" value="" style="shape=table;startSize=0;container=1;collapsible=0;childLayout=tableLayout;fontSize=10;fontFamily=Tahoma;" parent="1" vertex="1">
          <mxGeometry x="302" y="420" width="229" height="100" as="geometry" />
        </mxCell>
        <mxCell id="DkNM_tWxz2CX9CRkzyKB-143" value="" style="shape=tableRow;horizontal=0;startSize=0;swimlaneHead=0;swimlaneBody=0;strokeColor=inherit;top=0;left=0;bottom=0;right=0;collapsible=0;dropTarget=0;fillColor=none;points=[[0,0.5],[1,0.5]];portConstraint=eastwest;fontFamily=Tahoma;fontSize=10;" parent="DkNM_tWxz2CX9CRkzyKB-142" vertex="1">
          <mxGeometry width="229" height="20" as="geometry" />
        </mxCell>
        <mxCell id="DkNM_tWxz2CX9CRkzyKB-144" value="CIDR" style="shape=partialRectangle;html=1;whiteSpace=wrap;connectable=0;strokeColor=#3700CC;overflow=hidden;fillColor=#6a00ff;top=0;left=0;bottom=0;right=0;pointerEvents=1;fontColor=#ffffff;fontFamily=Tahoma;fontSize=10;" parent="DkNM_tWxz2CX9CRkzyKB-143" vertex="1">
          <mxGeometry width="91" height="20" as="geometry">
            <mxRectangle width="91" height="20" as="alternateBounds" />
          </mxGeometry>
        </mxCell>
        <mxCell id="DkNM_tWxz2CX9CRkzyKB-145" value="Next Hop" style="shape=partialRectangle;html=1;whiteSpace=wrap;connectable=0;strokeColor=#3700CC;overflow=hidden;fillColor=#6a00ff;top=0;left=0;bottom=0;right=0;pointerEvents=1;fontColor=#ffffff;fontFamily=Tahoma;fontSize=10;" parent="DkNM_tWxz2CX9CRkzyKB-143" vertex="1">
          <mxGeometry x="91" width="138" height="20" as="geometry">
            <mxRectangle width="138" height="20" as="alternateBounds" />
          </mxGeometry>
        </mxCell>
        <mxCell id="DkNM_tWxz2CX9CRkzyKB-146" value="" style="shape=tableRow;horizontal=0;startSize=0;swimlaneHead=0;swimlaneBody=0;strokeColor=inherit;top=0;left=0;bottom=0;right=0;collapsible=0;dropTarget=0;fillColor=none;points=[[0,0.5],[1,0.5]];portConstraint=eastwest;fontFamily=Tahoma;fontSize=10;" parent="DkNM_tWxz2CX9CRkzyKB-142" vertex="1">
          <mxGeometry y="20" width="229" height="20" as="geometry" />
        </mxCell>
        <mxCell id="DkNM_tWxz2CX9CRkzyKB-147" value="&lt;font&gt;0.0.0.0/0&lt;/font&gt;" style="shape=partialRectangle;html=1;whiteSpace=wrap;connectable=0;strokeColor=inherit;overflow=hidden;fillColor=none;top=0;left=0;bottom=0;right=0;pointerEvents=1;fontSize=10;align=left;fontFamily=Tahoma;" parent="DkNM_tWxz2CX9CRkzyKB-146" vertex="1">
          <mxGeometry width="91" height="20" as="geometry">
            <mxRectangle width="91" height="20" as="alternateBounds" />
          </mxGeometry>
        </mxCell>
        <mxCell id="DkNM_tWxz2CX9CRkzyKB-148" value="TGW Egress VPC attachment" style="shape=partialRectangle;html=1;whiteSpace=wrap;connectable=0;strokeColor=inherit;overflow=hidden;fillColor=none;top=0;left=0;bottom=0;right=0;pointerEvents=1;fontSize=10;align=left;fontFamily=Tahoma;" parent="DkNM_tWxz2CX9CRkzyKB-146" vertex="1">
          <mxGeometry x="91" width="138" height="20" as="geometry">
            <mxRectangle width="138" height="20" as="alternateBounds" />
          </mxGeometry>
        </mxCell>
        <mxCell id="DkNM_tWxz2CX9CRkzyKB-149" value="" style="shape=tableRow;horizontal=0;startSize=0;swimlaneHead=0;swimlaneBody=0;strokeColor=inherit;top=0;left=0;bottom=0;right=0;collapsible=0;dropTarget=0;fillColor=none;points=[[0,0.5],[1,0.5]];portConstraint=eastwest;fontFamily=Tahoma;fontSize=10;" parent="DkNM_tWxz2CX9CRkzyKB-142" vertex="1">
          <mxGeometry y="40" width="229" height="20" as="geometry" />
        </mxCell>
        <mxCell id="DkNM_tWxz2CX9CRkzyKB-150" value="RFC1918" style="shape=partialRectangle;html=1;whiteSpace=wrap;connectable=0;strokeColor=inherit;overflow=hidden;fillColor=none;top=0;left=0;bottom=0;right=0;pointerEvents=1;align=left;fontFamily=Tahoma;fontSize=10;" parent="DkNM_tWxz2CX9CRkzyKB-149" vertex="1">
          <mxGeometry width="91" height="20" as="geometry">
            <mxRectangle width="91" height="20" as="alternateBounds" />
          </mxGeometry>
        </mxCell>
        <mxCell id="DkNM_tWxz2CX9CRkzyKB-151" value="&lt;span style=&quot;color: rgb(51, 51, 51);&quot;&gt;&lt;font&gt;Blackhole&lt;/font&gt;&lt;/span&gt;" style="shape=partialRectangle;html=1;whiteSpace=wrap;connectable=0;strokeColor=inherit;overflow=hidden;fillColor=none;top=0;left=0;bottom=0;right=0;pointerEvents=1;align=left;fontFamily=Tahoma;fontSize=10;" parent="DkNM_tWxz2CX9CRkzyKB-149" vertex="1">
          <mxGeometry x="91" width="138" height="20" as="geometry">
            <mxRectangle width="138" height="20" as="alternateBounds" />
          </mxGeometry>
        </mxCell>
        <mxCell id="DkNM_tWxz2CX9CRkzyKB-152" value="" style="shape=tableRow;horizontal=0;startSize=0;swimlaneHead=0;swimlaneBody=0;strokeColor=inherit;top=0;left=0;bottom=0;right=0;collapsible=0;dropTarget=0;fillColor=none;points=[[0,0.5],[1,0.5]];portConstraint=eastwest;fontFamily=Tahoma;fontSize=10;" parent="DkNM_tWxz2CX9CRkzyKB-142" vertex="1">
          <mxGeometry y="60" width="229" height="20" as="geometry" />
        </mxCell>
        <mxCell id="DkNM_tWxz2CX9CRkzyKB-153" value="10.51.0.0/16" style="shape=partialRectangle;html=1;whiteSpace=wrap;connectable=0;strokeColor=inherit;overflow=hidden;fillColor=none;top=0;left=0;bottom=0;right=0;pointerEvents=1;align=left;fontFamily=Tahoma;fontSize=10;" parent="DkNM_tWxz2CX9CRkzyKB-152" vertex="1">
          <mxGeometry width="91" height="20" as="geometry">
            <mxRectangle width="91" height="20" as="alternateBounds" />
          </mxGeometry>
        </mxCell>
        <mxCell id="DkNM_tWxz2CX9CRkzyKB-154" value="&lt;span&gt;TGW APP VPC 1 attachment&lt;/span&gt;" style="shape=partialRectangle;html=1;whiteSpace=wrap;connectable=0;strokeColor=inherit;overflow=hidden;fillColor=none;top=0;left=0;bottom=0;right=0;pointerEvents=1;align=left;fontFamily=Tahoma;fontSize=10;" parent="DkNM_tWxz2CX9CRkzyKB-152" vertex="1">
          <mxGeometry x="91" width="138" height="20" as="geometry">
            <mxRectangle width="138" height="20" as="alternateBounds" />
          </mxGeometry>
        </mxCell>
        <mxCell id="DkNM_tWxz2CX9CRkzyKB-155" value="" style="shape=tableRow;horizontal=0;startSize=0;swimlaneHead=0;swimlaneBody=0;strokeColor=inherit;top=0;left=0;bottom=0;right=0;collapsible=0;dropTarget=0;fillColor=none;points=[[0,0.5],[1,0.5]];portConstraint=eastwest;fontFamily=Tahoma;fontSize=10;" parent="DkNM_tWxz2CX9CRkzyKB-142" vertex="1">
          <mxGeometry y="80" width="229" height="20" as="geometry" />
        </mxCell>
        <mxCell id="DkNM_tWxz2CX9CRkzyKB-156" value="10.52.0.0/16" style="shape=partialRectangle;html=1;whiteSpace=wrap;connectable=0;strokeColor=inherit;overflow=hidden;fillColor=none;top=0;left=0;bottom=0;right=0;pointerEvents=1;align=left;fontFamily=Tahoma;fontSize=10;" parent="DkNM_tWxz2CX9CRkzyKB-155" vertex="1">
          <mxGeometry width="91" height="20" as="geometry">
            <mxRectangle width="91" height="20" as="alternateBounds" />
          </mxGeometry>
        </mxCell>
        <mxCell id="DkNM_tWxz2CX9CRkzyKB-157" value="&lt;span&gt;TGW APP VPC 2 attachment&lt;/span&gt;" style="shape=partialRectangle;html=1;whiteSpace=wrap;connectable=0;strokeColor=inherit;overflow=hidden;fillColor=none;top=0;left=0;bottom=0;right=0;pointerEvents=1;align=left;fontFamily=Tahoma;fontSize=10;" parent="DkNM_tWxz2CX9CRkzyKB-155" vertex="1">
          <mxGeometry x="91" width="138" height="20" as="geometry">
            <mxRectangle width="138" height="20" as="alternateBounds" />
          </mxGeometry>
        </mxCell>
        <mxCell id="DkNM_tWxz2CX9CRkzyKB-160" value="" style="edgeStyle=segmentEdgeStyle;endArrow=oval;html=1;curved=0;rounded=0;endSize=8;startSize=8;exitX=0;exitY=0.5;exitDx=0;exitDy=0;entryX=0.75;entryY=1;entryDx=0;entryDy=0;fillColor=#6a00ff;strokeColor=#3700CC;endFill=0;fontFamily=Tahoma;fontSize=10;startArrow=oval;startFill=0;" parent="1" source="0ixl7kUn-2Kp-ZEXlMbW-6" target="DkNM_tWxz2CX9CRkzyKB-71" edge="1">
          <mxGeometry width="50" height="50" relative="1" as="geometry">
            <mxPoint x="274" y="719.92" as="sourcePoint" />
            <mxPoint x="262.25" y="495" as="targetPoint" />
          </mxGeometry>
        </mxCell>
        <mxCell id="DkNM_tWxz2CX9CRkzyKB-161" value="" style="edgeStyle=segmentEdgeStyle;endArrow=oval;html=1;curved=0;rounded=0;endSize=8;startSize=8;entryX=0.25;entryY=0;entryDx=0;entryDy=0;fillColor=#6a00ff;strokeColor=#3700CC;endFill=0;fontFamily=Tahoma;fontSize=10;startArrow=oval;startFill=0;" parent="1" source="DkNM_tWxz2CX9CRkzyKB-21" target="DkNM_tWxz2CX9CRkzyKB-71" edge="1">
          <mxGeometry width="50" height="50" relative="1" as="geometry">
            <mxPoint x="380" y="345" as="sourcePoint" />
            <mxPoint x="352" y="469" as="targetPoint" />
          </mxGeometry>
        </mxCell>
        <mxCell id="DkNM_tWxz2CX9CRkzyKB-162" value="" style="edgeStyle=segmentEdgeStyle;endArrow=oval;html=1;curved=0;rounded=0;endSize=8;startSize=8;fillColor=#6a00ff;strokeColor=#3700CC;exitX=1;exitY=0.5;exitDx=0;exitDy=0;entryX=0.25;entryY=1;entryDx=0;entryDy=0;endFill=0;fontFamily=Tahoma;fontSize=10;startArrow=oval;startFill=0;" parent="1" source="NRpxafxbuI9e7MQL-Ni9-1" target="DkNM_tWxz2CX9CRkzyKB-71" edge="1">
          <mxGeometry width="50" height="50" relative="1" as="geometry">
            <mxPoint x="194" y="520" as="sourcePoint" />
            <mxPoint x="320" y="469" as="targetPoint" />
          </mxGeometry>
        </mxCell>
        <mxCell id="0ixl7kUn-2Kp-ZEXlMbW-1" value="" style="shape=image;imageAspect=0;aspect=fixed;verticalLabelPosition=bottom;verticalAlign=top;image=data:image/png,iVBORw0KGgoAAAANSUhEUgAAASoAAAD/CAQAAADst1OMAAAAAmJLR0QA/4ePzL8AAAAJcEhZcwAAG6kAABupAd4Z1YcAAAAJdnBBZwAAASoAAAD/AIa2bZ8AACeoSURBVHja7Z13YFRV2v8/M5kkpJMCIYFA6B0EqdJRiroWXOtrede1roq9srouq7jrz6676lpf265l7dgWRATFBkgPEHoNpEA6SWbm+f2RSUiZOfdOvTPJ/dx/YM6595577jfnnvOc5zzHQtsimmQyGMAAsslwHSnYcODEiZNjFHKQgxRwgJ1spYhynEYXuq1hMboAAcJGBoMYQX/6kUtHErAp8ws1VFPCVjaxiY3spAS70Q/RVoh8UcWTwxgmMJZeJGL14Qp1lLOL71nKSgqoNfqBIp9IFpWVrkznDMbQmdgAXK+KPXzHZ3xPERKC8tuIxoqTOhwhuV/IiFRRJTCMMzmdfgGRU1MqWccnfMaWALdZVhJJJYcsUuhIsuuIpoZKKqiknArKOMgOiiinLnRVGXgiUVRJTOMyJpMRtNI7OMDnvMZqavy+Vjzp9GAwAxlAX9KJIZootyV34qCGMnaylc3kkc9hjkbiMCLSRJXAZK7kFJJDcK8CPuH/WOVzi5VIX6YzkUFkag4cWuLkGKVsZyVLWU1BZLdc4UwM03mbI0gIj4M8yQCv//QSGM5NfEoBdr9LUMlGXuQicnwahJgo6cXjHA6poOoPJ5u4njSdpbTSg2v4iAMBkFPT4xjrWMBo4ox+DW2HeC5kJQ4DJNXwSr9gGlEapbTSm7tYS22QSuGggLf5LalGv47Ix8IgXqLMMEE1HPu5U/E6rfTjXjYGuH1yd1TyJeeQZPRriWRszGGd4YJqaK/eY7ibMlroy3w2h0BQDUcZHzDL/BT6Rgp3GdKP8nxs5OwWn8FkrmSDAZ/mEl5hWMSN3g0nl1eoNlxGLY8C5hLvKqGFEfyLKsPKsoXr6Gj0a2pN+Cr9RB5jsu/li6IjicSRRDrxOHHioI5iyqikggp/bIqVPMffKCaVS7iJ3obW0jG+4GF+JqymecJVVBN4hhG+nJhMD/oxkH7k0snlrmB11blQx1GKKWI3G1jPbg5R4ctN7LzF21zNaQGfJPKFXTzEm1QbXYzjhKeopvE0Q7w7xUomQ5jEeIbSkRjNB3NwjENs4XuWkscRb//U7VSTGDa1V8FLPEyB0cUIXyzMYrN3fYsEGS9/lVVSIU7xFocckWUyT4ZJrNG9NX8OO18w0uhXd/wVhhuz+bs3/ZROnMpvOYl0vx7FyUGW8G+W+/Y59AoLMXQglg50IJo6aqilllqq/fUS3Mht/DccelfhJqqxvMIgvZnTOI0rGRewjk0pX/MKS6kMwoNZSKYzPRjiml9OJJFEYqmhiiqqqaKELaxnG4co9nX+eCd38KHxfg3hJap+vMIEfVk7cCp/YGLALYBlLOQpVgbwzUTRnXFMoR89ySRWMS8s1FHKbnayim/ZwhHvb3aQe3jLdIw+ThYf6u1D9Jfn5ajX/Se97JF7pUsAejpR0l3OlZckT2q8LIFTimWpzJdxEu/tXYu41ks3mzZMIs/ps0snyOWywYcuuTfYZZFMFqtfghomD8sGOeZHKZxyWP4jF3or8CL+N8y+QAZh4Xp9lunu8oJUBlVQDeyVmyXJJ0HZZKQ8LrsDJPxj8qNcI528KcF+zjH6hYYDJ7FTu7IsMk6WiCMkkhIRqZbnJctLQVlkmDwjewPcktbIt/I/kqy/HNs5xehXajSZfK7ng3KB5IdMUPU45DMZ7IWkOsoNsi1IZamS92S0/k/yOt9mJNoKNv6i7TZikyvkUIglVc+PcqKu12iVcfKhX30obXbJ7ZKuV1af08XoV2scs7TdW6LlOikyRFIiIitlrI426g7ZE4Ky1MqHMlSfqOw81l59rtL4QruVmitHDJOUiMhqjdYqR1712mzgO+vkLInSI6tyrjT69RrDlRzT6vpeYmAr1cBy6eexhMPlv0E2cbTksNwicfo67GOMfsGhpwcrtSpmhuw2WlEiIvKpdHcr+RmyxoDSVMh8SdQjq/dICfVL1VohElwszOUitaFuBM/Sz9BCNtCHoeSzv9lv8VzG44aUL4axJPCT9hLqXuxjVWjLZqyohvJX0lUZOvMUkwwt4nEs9OZkHJRSSx3RZHMi93ErGQaVx8ZoYlihNflsow9LKQxtyYzDwgVqJxcbf2C2gQVsTU8eYz972UFH+pAT+i9LM6K5gVIe1WqtBnATcwMQFSIi6MkGdX/gNIMsU5FEqVyvbRAtDq193cjP38VcoooP0JWnGWhg8SKDWEaSR746UxxxfB66IB/GBX1I53zVx9fCpYwzrHCRRBce0P7jm8XJoSuRcaKawomq5MH83uBRROQwgj9rBVhI5qrQdQCNElUMZ5PgOTmaq+lrUNEikbO5VMuFagqTQ1Uao0TVg5NUyaM4z6CCRSYx3KjllJDE+cSEpjRGiWoc3T0nRnFee55g94ne3K4VCuZkhoWmLMaIKpqTifac3IczDClWZHMmp6ozZHF2aNyMjRFVN/XH7wx6GVKsyCaBq9TTE3AG3UJREmNENUb18Utnjhne0icm8ht1hn6MDUU5gj9NE0UHUkkng3Q6kUIMMUxQrf88gcGhePI2SAcuZyHFqgyn8CGOYJcjWKKy0IFMetOfoQymE0kkkqjP8DTF4Bm1SGYUU/hAlWEi2ewNdikCLyorqQxhPJPoS2eSve0apjI12M/chkngAr5QRRXqzejIEpWFNMYxnYn0paOv44yB+kMpmLhhKsP50XNyB6bwUbCjLQRKVDH0ZzZnMZxE/y403Izo7BedOUUlKjiRRMqCW4ZAiCqBiVzENLr5P2iz0N8c+fnJyTxDqefkHvRkbXBL4K+oEpjE75kRqHCm8eQG93nbAUMZyneek7swINii8qdZiGMmr/BvzgtchNwOdA3u87YD0tWWZRsjg21X97WlsjCIGzlX954tOkmic3Cft11wIh045jl5ODHBdS72TVRp/A830C/wiu9r2qgCwBBSOeg5OZuOHArm/b0XlZXx3MMpwQj2bGGiKaoA0IV+KlGlkhlcUXnbp0rkGt7i9ODEDx/JxcF81nZDKn3UyUH2K/KupcrlHi5p3EQjwCRzu8HbJ7QVLKr5ekggO7j31y8qC5N5iPHBGjn04RbODu6ztiN6EKPapTfIQ2y9orJyNg+rW1UtLEQTiw0LViwIDuw4sNCBdCYwlxPMQJUBI1ctqlQsBDHeuj5RRfO/PODblziaRLrQnx5kkUUXUogmhmjqqKCSCqLoRifS2msgpSCRoXZHT8YaTAcYPaKKZy73eDsssxBPLuMYyxC6k0qc2Q6FkA7EU+I5uQe9KKAyWBPL2qKK407u8K5zHks/ZjKVEXRWuaKbBI0Y9bz+VBaxlfX8wk8cCLwhVEtUsdzE7d5IKo1JzGE6Xc2JYQOJVr+yGHrQgxkcYy8r+IYV7FWZ4L1F/U2K5nrmk6z3YumcxuWMUa0SNQkJBzmdX/VmruUAK/iIpRQFpvuuEpWVK3hYr3tTMmdwBePMDndYsJ/ZbPDulCp+5V0Wstv/LrxKVLN5WZ+ZLIrR3MLpZgsVNuxhJlu8P83ONj7iX2zyT1ieRTWY1/VtS5jJ1VwdmgVlJjrZxcns8O1UYSev8Rp7fP8Uelrf0onHma59uoVRPMEV4bjleLvmGB+qppRVWEhlMtMQdvm6L7N7UcXyRy7XHr7F8D88zThznBd2RLOUTb6fbiWLmYymmF2+2LLci2oO87XNCInczgPBnps08Qkb61nm7yV6M4skNnm/A7A7UfXiSe1gBhn8mVv8XTpjEjRSWKKyqesjnvGMYCf7vOtftRZVDPcyR2tOJYtH+X2owh2Z+EAWsSzxP8ynld6cgpNNqvnplrQW1W/4k9anrzOPcLEZPDHMGUAdeb72tZuSwlQ6s5pyvSe0VEYmjzNAfUoaD3GZKamwJ4aJjKKYQm8aGffYGEE/flXF/mhKS21czpVqvcQzn6vNnZ8jAhu9OY3JjGYYPUknDgs1vpmfrPRnFHn64jA07zvl8oE6dKSV6/lbsPyJTYKGUEctlexgM+tZSR7FvohrC7fxufaJlmb/vocH1EanU3mZLKNryMQvnJSzkeUsYQ2F3kprJ3P5TCtTU1H15yN1f6ov/1YHPzeJGIRKNvIhH7MNuzcnbuM6FqmzNO0/Xct5KlNCB+ZzptF1YRIgLMTQjemcTi6lHNY/g5zGaDawW5XluKiymK9eZTGHeXQwui5MAoqFVMZyBt3Yp9+ZKoNRrG6x8WEzjovqbK5SDepyecqMGdwmsZDIaGaRyE69gas605+lHPWU3CCqRO5TxW+1cLPWFqImEYyFNKYwgQK9M8g96Mg3nrzbG0Q1Tr24YSgPBTrAi0mYYaUbM4lnE5V6sg+imh/cK7BBVFcxy/P5Nu7kNKOf2SQExDOB4eTp8cWKYjg72Oguqd4qlcYU1fmDOdfopzUJETZm8Tqn6vGRS+fPDHeXUH/uYHU8/LNNZ+F2xSBe4DI9KzYHcpu7hQn1n7/LVF+3rsw3rejtjGSmUMMqbetVH3a1jiBqBVLU2wuebG7r0Q5J5X6u0W6tEriVfi1/jAL6qLaK68CdodomziSsiGUcJazVMjFkEsXXzZs0KzBYtWC0B2OMfjoTg0jlQc7XznYh05r/YAWGqGZfxptBqNsxGTzABK1MaVzVfLGClUSGeM4fzXQzbku7phcP0VMr0wxObvpfK+kM9Jy7s3tDhEk7YjL3aa2aSuLKpmFcrPSik+fc3dQhSU3aBRdqR42exszj/7GSqwrUMsxc2WdCHLcwVJ0lgUuPS8VKN1U3fZi5xMEE6M+tWisTJh4P52JVbagWT47RT2MSJpzLGeoMaZzVoCSrSjeJZBr9LCZhQiJXk67Ocio96v9hVU3rJZp7Wpk0MkGrrerDjPp/WFURPVNMxzyTRmK5Qt3IRHNavc+CVdVNTzYNnyZNGMPp6gyj6j+AVpVBIdb0SjdpQgznqE1MneonipUtlSkqk+aMV8+wxDABG1hVO/fFhI2oHNixB3M7FRNdpHOWWhNj6QxW1ZrncHmJR5nHJVzCbRQZXZR2zwy1F3AuQ8CqWo9TESayquIL3uEdPqXK6KK0e/qqJ2ySGAk2Kjy76AVtmyUvsQTgMyxsohToRF+jH8cHnGynEEijr8Hh5hKYxFeqDP2IsalbKq/igYQ1dv7IMuA8/ml0UXygjkd4H5jFC4ZP8Y+jo+cV79CPZJsqoHEFJXq3pgl7hKMcAb3RAsKOMkqAsmBuKKqTIeSoRNWdzlbVZvJlvu4aYBJwwmUcDinqDkQKA63s8ZxeborKpBUdVK7CkEB/G7uwe3KaqlXHtgo7HNixYnP7V62vs+/AjoVo3e2CAztRHn3O7DgUqU1xYkeI1rHYPBxarH5EebYLRJFtYxdVnieV11AbtiH4t3MIyCIXC3Vs4mvyKSKBXHpzEj0bX5CwmSPYKQWgiB8AC/1b9BbLWcePbKOIWHLI5SQGtJr5bBiD5ZADlPMVSznASO4gFif5FAM96AocYx1L2EEJKeTSlwl08yAHO/n8yHoKqCOb7pzA2GZdcWEHh6l1WeiO8BMJQC9D/UdySVHtJpEBYyhAPB3D5JAYzwEZJgjSS3Y3+fVmSZV0uUeccljukm5ibSx1lAyUv0ulK59dLpRU6STRgiCx0kk6SVdZ1ORKdfKNzJF0sTRewSI95HpZ1aIcx+QaSZNU+ZuI7JFLJUEQZJKUicgx+Z2kSro8ISJ75A+S2eRq0XKCvC41bp5sm9wuuWJrUuMd5Qz5QI41KdtNkiadJFYQJEYypJNky1uGvo9N0l08a4avbRyg0LMv3gHyw9anqpwjQCV7uY2PsGMlBgcOwEEed1DJbUQBQglHGs+qoRCIaRKwvpaX+QsFza4t7OYfLOExZjdpYYRSSoAqDnMr7zcbiQmlHAGqyed6vsZJFFGu8tSxhhup4coWT/ADN/NLi/HcUT5lGXdykyvyhbjGfQ1lLQKiA7GPgx90VIfpzLBRwkbPK/+KWaO9mNBQylnA+8Qxnel0o5RNfMoeoJonmcJYwMpUkrDwLYVAd8YBtsbJBuF15nEUiGIQ48mmhq18TwGQx7U828zdo15gNTzBBwg2EoinZzNzZBH3sYgkpjOZTEpYx0IKgKM8wiT6N8n5K9eyDoAsJtGHaPbzA3k4KeVBqrmXWMDKGMoRfmEPkMV4bEQZHCgzwXOUBKB+ddY8RVMm50i1oU2tiKfP3xWCINkSJ53kGTni+tUuP8pYV9n/5PqtVmqkXCYJgpwvNVIjNeJwpf0sPQVBkuUm2e76tVqWyHTX53SC7G+8Y7VcJAgyQjLEIqPlCVkp+XJInCJSLXMEQXIkRrrL61LuOqdOFskg1yf12SalL5FzXJ/qmfKt63Nnl3y5QZIEQdLly8Yr1EipnC8IcqoUSW2T0htDpcxUff7KAU6n3HOW7rLB0AcQUYsKiZNnxN4s/yfSURDkt00qv0amCIJc2CxnjVzm6mk91qQfIyKyzyUSmzza+FuDqBCrXCA7m+VvEBWS0qrH86p0EAS5XpyNv73m6iWdIwdaXOcRV+7TG/9QRI7Jha7fyox+GSJSJWcpRWUF8lST//v5wdCmVpupXNJiPmysyzxXpjl3ud4VZ342v2/hA9SVu8kF7HzoZqQzjAXkerjmmcxp8ctE1+qS4/bwCt6lBujOXS1m/TtwJbMBWO76OIYjynp1WoFDrcNWHcfBp/oCixqEhbNa7eCc5hp5aE9pfMNBIJ5r3OwCPcoljvxW9mELF9HbwxU7cFYrZ9r0VuXJ42cAzmVUqyt05AoSgQpWhr46daL0XnFagUq+VUnvO34x+hkUJLuZNIjSaVurdT1Zdwa5SbUyHBtQyvoWKWmKwUu6G7lFtyrPBtcoboJbc+cAMgEna8LE9aglotFS1Zt7l3KYLp7ylPAfJoXt/n4pfqxNLGcrAD2wcaRVuxZFGokcpabVZFWqYvSVrKs86xEgjQxKWwnHQozLMFtIlXqcZRDiKYB6PS5RbWO1KurnZ1yrijdkKMmq+CIalLpcNFZ62HOnypXe0jUwReGDna5a8+bC6ZrFL+U6t1dysh2Aav+3qw0KterdJKvqRVXOEmZ7nnjaxWv8LUzbKpsf00gVHAOgWGPLzZaiSlDURayO+TtxTRkdcx+GvJFwFdUR9c63hxtmOxdzQBXX+h0uDNtN2Xz3MGo4M005a2AnpcUvVr+ndev7JHF0U8jTSXbA6iiwFKndug82iCqPRVzuOd9eXmJo2E4t+0qC6+NzBg8rup7iLlS4X1hcMu3FG2Qp/ihsYbpCvEhtD2gUVS3v8VtVd+BdTtNaSx9xpLjC49SQHtKQSVZXP7CKOM/jozBmt8pdWDh4vAOwgh9VFyrhEdUWbxFJsmsUt9/Vx2lJFYc4xOEg9GzqTRjFFLpNtVPIIQ6FqX3Q3srE0oxjTUVVyrvqvea/57k2tBACINbVT1zPajepDh5nKtO4WOVx7SND6AiU8YXb1KWcyjRmstjoCnJLldrSX83OpkOVz9QmXCcv8LnRTxRgppIBHOV1N63CJl5lM3nEtOqo+88gTgDgfTa0SqvkJVaRR0GYxlvdz15VchH5TUVVwIuuMbYHCvmTm0qILJp3i0907aDyAc+2ePRDPMAOIJqzg2CATOM8bMBW7m/Rqajln3wKwDQ3u6SHwzrMjRxWJW+huLlR5ROWqy+4lvs89AMihcJmi7TimUsWUMUD3Mk6KnHioIxvuZYPAB2hvnzkXKYD8DG/4yuO4ECoZgt/5kGqgEyucBOQ57DhS8ycfKdueTZS1nzQU8I/Ga9erbiQB3kwLCcP1DREd/uF2xlMNXNcDnOTuJ37qaCcf/AhI+lKHbtZ4/rT6cmfgjQ+68x97GIrDhbzC8PpSywH2cB2nEAcNzXbmyPKVfoN3MNIajjZzUR0aCjme1VyLZtoNZL+ioVcqDrLzj9JYp5WrNqAIm5tOaI8oyU2RrEQoZwXsRDDMJeoorgOCw9zCCf72NfsnCH8jaluriuKe7svqbhJm8jz3M4anJSyjGVNUtK5mRubvRobJxCFgxre4E1sZBgmqtWu+VIPlLKxtagqeIwxam/VGp4gkVtUMYgCTDynMgjo0kzKYynHQk+3JtlJRCOc0MzyfRk/s4haWoqiAzdwAv/gO4oaJ3dj6crpXNNiU7ooTsIJDHFzzygmEQ0Mc2Mjj2Y6nYCTWljip/EOL/IB+xo/KFGkMZ5rOKXVHc5hGR9TTb00jVqo5eAT9Qd4K7vclc7CLfxVy3iexF3cErLWSqjDSf38/fEC1+EArG6L6j7tMIvZwFFS6MKcFmOrSjbzC3s5gpUM+jOSXm6CU3p/z3pqcQJRbq5oZw8/s5Ui6kghlxMY4qH/cYQlrKGYRLI41U0nPhTkczr5qgz/j7vcSz6d17SCO0Icc5kXhMF2sBEcRHn8SxccWAyZOncginIdL58zADOPvvM0t6p8vCq4iIW4rb9q9nCKll7s/MJhRuhw9AgvLMqXYsGqZ0vqIGDVJRaLoZIq4F61jWorj1KOhz/KvVQzVesT6GANa+lP17BYim0SfP7Ny2pf1LfrF0N6auk3ks5oLbUIO/mGVPqZobHbAXu5WxXNBUpZwDbwLCo76xhCH+1bHWEJe+lDhtletWmEZ3lL7bv2PU/WD2M990nLyeMkPQ7XNfzKN8TSS70Y2iSi+ZV5av9YB0/zbf0/VQOdg+QzUV8ovUIWs5oEuobQemUSOkq4gxXqLFv4S8MCSfXoeQd7maRvTsZOPp+zlhRyzD0C2xgOnuEFdRddeN41WYqWqGArhUzWa+WsZTMLOcjQCLRfmXhmMXd7cGNsZCf3HXde0BKVsJFixus3ntewkgOcrNryxiSi2M2N5GllepF3jvfitY3HTtayl7HeWDm3EsuEMF3SZeIdZfyJj7Uybeaepk5Wet68sIGtjNLamPI4TjYwVbXiyyRCqOIhntNafG/nET5p+oO+OQlhIVexSn9hitWrKEwighqe4kn1wgWAn/hX8x/0T3Qt4zLe17uwRPglTINLmOiljhf4q3YgyKM8wYHmP3nT8SlkMXUM09cH78y5bW7xaXvCyRvM0xrzgZPneLZl++Fdb7qa79nOYD0xMSZznjlxE8F8xw16lqZ9y51NovS68NbPo453OZ9XVUtUASwMNSUVwZTxZAvXarfsZ767bL44D23kBq5VO9Ykh204DxM9fMaX2plqeKKZa30jvnmkVfGtKuQ/jGOE0fVi4jNOluvZrvMjXnK/ENFXN8cR9POcGM155kRNBOPUEzVjDQ946sf7KqqZqjHgQGYaXS8mflCjvVf1dm73HLHNN1GlM1KVPMsV4tkkMonWDrf2Hl97TvRNVNn09JyYyAyja8XEL2KYpjV2P9FNjPBGfBNVHzI8Jw5muNG1YuInE+iqzjCWMZ4TfRPVcNVKh0lhu++WiV4Gt9q1ogXJzPHsi+mLqKJV8a9tjDO6Rkz8xsbvtaJjzfC46YVPouqk6lFleL6XSQQxTB2nBXKZ5SnJF1Gltdijpxndtb7GJhGBlctUbQdEcYqnsM2+iCpFZdnso9+XzySsGajaBARghKcvpC+iylR10/sbFIvAJNBYOVtlN4BMxno603uyPDvMWE0n4jbEaHVotWgmuR8B+iYqj2dZIzLYvIl7UjhLbQQd4/51+yIqhRkqIUw3vjDxjYnqCZsezXYab8QXUSnWACaro9CaRBh93W6v2UiCe4ulL6JSuCBHm0GF2hQJrjjzHrAGrqWyqJJMJ+K2xXj1KuI+7sxLARaVUcENTYJFX3Wvqre7qEDea0CpG7Olamt0Vs8BZrhL9l5Uyq2+68J0g1YTX4lpEUu+BR3Ibf2jL6JSLM8q11q7ZRJhWNXjv2h3a0B96QIpHJgrTFG1OXJU2/1a3E31+iYqj/FE61ovVzWJcDqq95B2Y+32TVQee1VOPetaTSKKFHXEu9TW8YN9EVWh54Auoh1zzSTCSFaLqmPrOCy+iOqwKr7MVj1rW00iiER1KPOY1jMsvrVUBz0n7qPA6FowCSgatkc3/WvfWirFbhIH1JE7TCIOp3qfBzfJvoiqsn4HEveU87PRtWASUJzq7cADJCrYpLrPMu2QfiYRRGhaKshTbfi9nl1G14NJAKlU7+5uD5SodrLbc+I+fjG6HkwCSIl6lqSMmpY/+SaqfazxnOhgoVrbJhGFhqiKWsfE9k1UdSxT9aqWs97omjAJGEfUojrc+idffep+otBzYgGfGl0TJgFjryoifp07s6SvotrOBlXyp+YcYBvBzlpVckBFVcZSVfIGPjK6NkwCQgWbVMk17mZXfHcp/1I1H2PnVdOy3ibY3XKPkOYcchfB33dRbXAfQ7uBtbxndH2YBIDt7nrix9nsLvS576I6xgetLRTHcfAq+UbXiImfCCvUu2htcueU4s+KqmXqzvoGnlGpziQCKGrYwN09Ne5tR/6I6mDzrQNb8xZfGV0rJn6xhq2q5FL3sdT9W/v5H7arkkt4xDQtRDDCN5SpMmxz71nnn6jyWu5J2ZIVPGFO2UQsBSxSZ/jJ/coq/0QlvMlmVQYnL/Ka2nXCJGz5Wj3dVsU37hP8DX2wlTfUminnQdWOEyZhSzlvqwda+ax2n+B/PI1/a80e7+Nu1hlWNSa+8gPfqTOs8LRWwX9R7eTvWq6eq5hrLt2KMKp5Xb2D8jG+9uSpEojIP+9oOyUs40aVY7tJ2LGYheoMW/jJU1IgRFXGo9oexIu50bSwRwwl/ENrp/ePPVuLvNvt3RMHiGK61rW28StDzP0gIoK3eA67KsNe/uR5M/jAiAq2MIgBWpn2sIKe9DYDo4U5W7hTa8Pbd3nNs+9voERVTR4TyNTKVsgyEhjQevm9SdhQwR+1pteOcr+qixwoUcEh9nOyOuoMQBnfsIeBql0oTQzlFR5Xf/rgK55ROS8ETlSwDQeTPW8t2EAda1lOKr3N8NhhyApuUy0/ACjlPrV/SiBFJaynCyP0dJkO8V/yyVbtSOIzTvbwGc/zPl/wA3F01ta5iYt85mobqt/jaa2mLLBk8wGi98iWO2WLOCVwOGWbLJDBEt14j87yO1kVwDu0ZQpkjvZb22fE1rO5fK5fVlYZIPNktdQEoEocki8LZJBYW93lRFln9PuKAErlGjd11+Jw8nBAv2666cti/bJCLJItl8uXUuhHm3VEFslc6e+xUmbLPqPfWZhzRG6WGO23tZ5+2gIIjsloEM8zybtTkhjCRE5hGJleFEooIp/v+JJVSncyC3exwNyNwiPF3MvL2jHwK7iRV7WvFiw75GAeZ4b3V09gICMYwRByyCTOY74qCjnENn5gJZsp1eGxlcNHjAzSw0Y6BczjDT197xe5WU/0zeAZt7uzgAt8sxpYiSeH7nQmiyyySCAaGzZqKKKYYg6yi30coFy1ILsVf+Ap04jhho3M4zM9NbmKi/RN3wZzxiSNe7hOHdpWTwGjXIW0IDi1QnApyOQ/TAzi4/pHAZ+xkUpqGMkM+obIDOLgK+apF7Y3UMIV4bHsPJ5bKfSm0x7c42KpNLo/7JZyeVXGN5pBrJIrV8uvATW1eOqcPyZd9NVdLQ+GTzNv4wxW4jRaTvVHorxmtH7cUCF3SYdWZe0j/5CjQbyrQ1bIWRKrt+7eCLd9jHvzAhVGC6r+GCIbjdZQq5f7qBtJIUgHOVd+EHtQ7npQHpJu+uvtK/X+bMYQz+VsMVpQ9cflUmG0jprxX8lSlDZbbpe8AH8IC+UVOanJnIPmsYphRgvIPRaG838cNVpSSIK8GILeil52ykka5bVIP1kgW8QRkPsdljdlqv6PniBsZ5rR4lERx2/4kmNGyypHFhmtJRdH5Xe6SmyVPnKL/CDVftyrVtbKX2W8xHlXWzs502jZaJPKFazEbqysRshao/UkItXyRz0TI41HZzlHnpd1UuX1fTbJm3KJ5IjF25raymxfjE5GePbmcA4XMEK9j05wmc2LdDPu9oCD57nb6y03rWRzAuMYRi9ySFRMPAmVHGQvq/mW9ez3xVdlE3NZ4suzGeUu3onpXMRkd3uF+41g17KpWLiER+ls0MODnde5S7XFqwYxdKE7/cghi0xSicOKFQtOKiijmMPks5X9FFDp6y1+ZS7fG1ZBPpPANJ5hHdUB/LTVkcfTXMo6rZxRcokcNOjDVycvS0bAntkqSdJJMqWLZEsXSZIo/6/p4AuGGy0P37GSw5n8ndVU+lkRVWzgTX5HT6KASynXfhkXyX4DJFUjzwdQUkE4KnmGLKOFEQhpZXMqC1jIJspxePU3Vc0uFvEgs+neZMIsnpf0/I2fK9tDLKkymS/JRstGdRxgrv/zteFEB7qQwxBOoAdppJJGAlFYm5RTcOLgGOUc4QDbyGML+9hPeatrDeAdbaOdhZN4iEkhq4Z9PMBr4Ru00slPzGexV84fbggvUR0njmSSSSKNTJKwYSMKG0I5xRRTRhVlFGv49pzP83oGAt25l0tDMBR1spz7Wa7ePc9ICnmZZ81I5WqiuUffICBRbpSdQf7slciTkmP0p83zUcdiZoSPH0I4k8iz+npoVhkpr0t5kARVJ9/Kb/RPjoTap8PJNu7WXl1u0kAXPtZbuQlygfwUcK8Ap2yVe5STxi2OgzzC99SFTFC7eJjBpvu+dwzkJ/2VnCO3yi8BWTAmIuKQHfKQDNBe+HT8KOUPRJHNrayhNuiC2ssTDDdmyVWkM4EN3lR2tlwhS/z2ET0mK2WeDPLOFFnGHa7YJRZyuIYlflvvPB01rGUBI8xelO9MYK13lZ4uZ8qzstbrydv6HtROeUsulmxvJ3DLuJPYZuVO42ze5kBAJ+CdFPIhl9IteJ+8cDUpBJqxPOvtCq0oujCSmYylN0k6/qQdVLKDdSznO3aod3RxRzkLeNKNCSuOvkxhOqPp4ueHyk4R6/mer1jv+5SgHtqLqGAUf2es96dZ6UQ3hjCcHnQhizRsWLECAjippZRi9rGTLWxgO4d9i11xmAd4UWEVjacXEzmJAfQk2cvwXnVUs5c1LOdHdqq3cAgM7UdUMJwnmeL7E8eSTDKJJJFMIlBHHZWUUEklpXrWWHpmO3fzkQ412kinC4MYzgB60IkkooluXMPWgODAjoMqDrCDfPLYzH4KtBcgB4r2JCroyf1c2KLfYjwruY3leLecMZ6OJNCRTLrQhWSisLq8X6ooppgiiinhCCXmLi7BJ5m7OBzkobp3o7C3tWOlmoQ70Zyl7W0VoqOAu+hodIWYBIZhvBdQ10BfDjsrmG0G+WtLpHA16w1cOX2QB8kxuhJMAk8/nqLIAEFV8ylTzDaqrRLLbL4K6Yewlh+4PNziEpgEmgwuD+IcW9Ojjl+Z2xa8v030kMa5fBTURfmVfMdN9GhndsF2TxKzeI29AfdkclDAe5xHp/YjqHbzoLqIpQ9TmM4YugTAKUQ4whoWsZhN/s3iRBqmqFoTTy6TmM4YOhHvUw1VU8gGfuQbNuiKctvGMEXliTiyGcRQhjKYTOKI0zACOKmmksPsII+VrOUgle1PTvWYotIijjS6kktPculOBkkkkUQcUIcdOxUUcojDHGAbm9lLGZXhuworNPx/xY+zDK/IqPEAAAAldEVYdGRhdGU6Y3JlYXRlADIwMTEtMTEtMjJUMTA6MDI6MjAtMDg6MDBEeshxAAAAJXRFWHRkYXRlOm1vZGlmeQAyMDExLTExLTIyVDEwOjAyOjIwLTA4OjAwNSdwzQAAABl0RVh0U29mdHdhcmUAd3d3Lmlua3NjYXBlLm9yZ5vuPBoAAAAUdEVYdFRpdGxlAEludGVybmV0LUNsb3VkLz1U9gAAAABJRU5ErkJggg==;fontFamily=Tahoma;fontSize=10;shadow=1;" parent="1" vertex="1">
          <mxGeometry x="-213" y="410.78" width="80" height="68.45" as="geometry" />
        </mxCell>
        <mxCell id="0ixl7kUn-2Kp-ZEXlMbW-6" value="" style="rounded=0;whiteSpace=wrap;html=1;strokeColor=light-dark(#6440c1, #ededed);fontFamily=Tahoma;fontSize=10;" parent="1" vertex="1">
          <mxGeometry x="305.5" y="593.5" width="95" height="63" as="geometry" />
        </mxCell>
        <mxCell id="0ixl7kUn-2Kp-ZEXlMbW-7" value="" style="shape=image;imageAspect=0;aspect=fixed;verticalLabelPosition=bottom;verticalAlign=top;image=data:image/png,iVBORw0KGgoAAAANSUhEUgAAACMAAAAjCAMAAAApB0NrAAAAt1BMVEVpPMVqPsVrPsZsQMZtQcduQsdvRMd8VMx+WM2DXs+FYNCGYdCJZdGMatONa9OTc9WWd9eZetebfdiihtukidylitypj96qkd6rkt6tld+uleCuluCwmOCwmeGym+G2oOO7p+W+qua+q+a/rObDsejEs+jFs+jJuerKuuvNvuzOwOzPwe3SxO3VyO/YzPDZzvDb0PHg1vPl3fXn4Pbp4vbq4/ft6Pju6fjv6vnx7fr9/f7+/v////8jFTXkAAAAAWJLR0Q8p2phzwAAAKtJREFUOMtjYBgZgFNWUYYTrwoWNQsFcQULVRY8ajS02IAkm7Y6biV8JhADWE15capRloQypJVwqtERgDIEdHCq0eWHMvh1yVejrKlpaaAJAQaWmprKWNSYigkhAzFTbGo4ULgceNQwszMTUsNlZmbOTUCNngiDsD4BNUY8DNzGBNRIGEkZSRJys6C1EEF/MVgxUUeNISNhNXjDWU4UGchhUyOvggrkh30ZAACvQhXLhmp1IAAAAABJRU5ErkJggg==;fontFamily=Tahoma;fontSize=10;" parent="1" vertex="1">
          <mxGeometry x="305.5" y="593.5" width="35" height="35" as="geometry" />
        </mxCell>
        <mxCell id="0ixl7kUn-2Kp-ZEXlMbW-8" value="APP Private" style="text;html=1;align=center;verticalAlign=middle;whiteSpace=wrap;rounded=0;fontFamily=Tahoma;fontSize=10;" parent="1" vertex="1">
          <mxGeometry x="326.5" y="596" width="89" height="30" as="geometry" />
        </mxCell>
        <mxCell id="DkNM_tWxz2CX9CRkzyKB-159" value="" style="edgeStyle=segmentEdgeStyle;endArrow=oval;html=1;curved=0;rounded=0;endSize=8;startSize=8;exitX=0;exitY=0.5;exitDx=0;exitDy=0;entryX=0.75;entryY=0;entryDx=0;entryDy=0;fillColor=#6a00ff;strokeColor=#3700CC;endFill=0;fontFamily=Tahoma;fontSize=10;startArrow=oval;startFill=0;" parent="1" source="0ixl7kUn-2Kp-ZEXlMbW-3" target="DkNM_tWxz2CX9CRkzyKB-71" edge="1">
          <mxGeometry width="50" height="50" relative="1" as="geometry">
            <mxPoint x="235" y="520" as="sourcePoint" />
            <mxPoint x="262.25" y="420" as="targetPoint" />
          </mxGeometry>
        </mxCell>
        <mxCell id="DkNM_tWxz2CX9CRkzyKB-71" value="" style="shape=image;imageAspect=0;aspect=fixed;verticalLabelPosition=bottom;verticalAlign=top;image=data:image/png,iVBORw0KGgoAAAANSUhEUgAAAEsAAABLCAMAAAAPkIrYAAAB3VBMVEVpPMVqPcVqPsVrPsZrP8ZsQMZtQcZtQcduQsduQ8dvRMdwRchxRshxR8hyR8hzScl0Ssl0S8l2Tcp4T8t4UMt5Uct6Usx7U8x7VMx8VMyBW86CXc+DXs+EX8+FYNCFYdCGYdCGYtCHY9GIZNGIZdGJZdGJZtKKZ9KLaNKNa9OPbdSQbtSQb9SRcNSScdWSctWTctWTc9WVddaWdtaafNidf9mfgtqghNqhhduihtumi9ymjN2njd2ojt2pj96xmeGym+GznOG0nuK1n+K1n+O2oOO3oeO3ouO4ouO4o+S5pOS7puW7p+W8qOW9qeW9qea+qua/rObArufBrufBr+fCr+fCsOjDsejFtOnGtenHtunIt+rIuOrJuerKuuvLu+vLvOvMvOvMvevMvezNvezNvuzOv+zOwOzPwOzPwe3Rw+3SxO3Sxe7Txu7VyO/Vye/Wye/Xy/Dc0fHc0vLd0/Le1PLf1fLf1vPg1vPg1/Ph2PPi2fTi2vTk3PXl3fXo4fbo4vbp4vbp4/fq4/fq5Pfr5ffs5/jt5/jt6Pju6fjv6vnx7fry7vr08Pv08fv18vv28/v29Pz39Pz39fz49vz59/z59/36+P36+f37+v39/P79/f7+/f/+/v////9Yf34wAAAAAWJLR0Sen7KjCwAAA+tJREFUWMPtl+1D01YYxY90Y5La4QtSEEop1Vmdus1pJ07HFtlYYZuAbjoQKWjBFq2oLWDZhsrmy5gzTZooNDl/6z6QlEBZGvCjfT4lJ+mv9z439zzPBapRjWq8i/FeuDM2PHlvcjjW2eF5G5AQnZK5FnIqKmyTtP+iQnJhZPAJycXLo4sk5R8btkHy9i3TeHC2Ae0Fqn+oLLSh8VyWXO7d8thO/M1iPAAAWd7ywZdkBgDaJ3U+P74lkqdH50wIAOCnvAuAT2EjAOCjeerdNe5RHyS40mW+H2EOAJBjxPwfscixWteoaUpHrZsm5gUAXpn+0vxlpl3CPAkuBdZuZxgXIIwxuyaF/mHc3TR7KNlQCGmUMhK1drsmU3SD+kRfObpOCM2SnA2t0z7V9WMuvvVn7Nqo9bN/o9TNF5W/sz7OlKVCLJ+R5zfGKm6c5WIILlg4rL/ZV4F1kXG4YiHJvgrZUoyAS1YH5TpHVpQP4JKFOZ52ZE3x7CY5TDCxv1z+iklHF5VZ9qPWaYOkcbdl4wM/JSenDXMBaIo026TPNSqpK6kC1ZM2tTniB/5kyIHVyZH2LGn5DYBWjVfrAdQPUS2NLDxHMhMY4xcOrF4OFijN5alZsGleNa+GmDavDr5mPqdQucweB9YwF01XmDXTbij15rPdBcPM5TyvC9iV5GMOObCSpOwFIOTZL4qiKCaYsq3xTVEURXGArwQAPs3gLQdWmpwzTcuKn0sPfylpq1b2O0uz/r9xCQCEV5uM6zZv2Mf1oWZwskK+xgUI19fyVbDytUfVzc2cY1yAL8UFx3zFeKnAfE6iarno3dL713jHWkeN8uo6fuvAOsORtgzJTMmQW1QO7Qaw5xoLB0rbepbk/dY4o47f/WPAf9hvk06qVKeu3FZZ+MymNkUagUUGnUqQVL4fW9IGSf3OgfL9+K9jMUrxy0184iZvbOKh5zlRwb8yrv1rhqecfVU22lyy2intdDbpnzjmkjVZsRA1LOthV6xDura3UlHr5Zyr+pjjhcp1+ym/3qgNcKAc/8xFf3hcL368Tjg4T3J+/cxPFFeOuGlOupm3r2X4NV9m89Q6bFpQLm86No2aMS612cvgSB2Eccs5ACC4xOEd7pq52jTzpY6oedWtvAqbbH3h1Ptum8zaOIvfeKx+ddVFH9r71WHXKKBGLPJh2KqoAgBv3uyjD+W40rUDW4ljz6knggCQ4bgAb4L3rf7+ryPYYgixN2TmXCMCCuWcTKUV/vNZUrtQt41TzL4fZJJPRgcfkVy4NLpIUurdi+1F3emkZDunvZw4tfNtjn2e0JnvhybuTfz6XTRYg2pUoxrvYvwHPgBpLfZftQEAAAAASUVORK5CYII=;fontFamily=Tahoma;fontSize=10;" parent="1" vertex="1">
          <mxGeometry x="215" y="420" width="75" height="75" as="geometry" />
        </mxCell>
        <mxCell id="0ixl7kUn-2Kp-ZEXlMbW-3" value="" style="rounded=0;whiteSpace=wrap;html=1;strokeColor=light-dark(#6440c1, #ededed);fontFamily=Tahoma;fontSize=10;" parent="1" vertex="1">
          <mxGeometry x="306" y="311" width="95" height="63" as="geometry" />
        </mxCell>
        <mxCell id="0ixl7kUn-2Kp-ZEXlMbW-5" value="APP Private" style="text;html=1;align=center;verticalAlign=middle;whiteSpace=wrap;rounded=0;fontFamily=Tahoma;fontSize=10;" parent="1" vertex="1">
          <mxGeometry x="327" y="313.5" width="89" height="30" as="geometry" />
        </mxCell>
        <mxCell id="0ixl7kUn-2Kp-ZEXlMbW-4" value="" style="shape=image;imageAspect=0;aspect=fixed;verticalLabelPosition=bottom;verticalAlign=top;image=data:image/png,iVBORw0KGgoAAAANSUhEUgAAACMAAAAjCAMAAAApB0NrAAAAt1BMVEVpPMVqPsVrPsZsQMZtQcduQsdvRMd8VMx+WM2DXs+FYNCGYdCJZdGMatONa9OTc9WWd9eZetebfdiihtukidylitypj96qkd6rkt6tld+uleCuluCwmOCwmeGym+G2oOO7p+W+qua+q+a/rObDsejEs+jFs+jJuerKuuvNvuzOwOzPwe3SxO3VyO/YzPDZzvDb0PHg1vPl3fXn4Pbp4vbq4/ft6Pju6fjv6vnx7fr9/f7+/v////8jFTXkAAAAAWJLR0Q8p2phzwAAAKtJREFUOMtjYBgZgFNWUYYTrwoWNQsFcQULVRY8ajS02IAkm7Y6biV8JhADWE15capRloQypJVwqtERgDIEdHCq0eWHMvh1yVejrKlpaaAJAQaWmprKWNSYigkhAzFTbGo4ULgceNQwszMTUsNlZmbOTUCNngiDsD4BNUY8DNzGBNRIGEkZSRJys6C1EEF/MVgxUUeNISNhNXjDWU4UGchhUyOvggrkh30ZAACvQhXLhmp1IAAAAABJRU5ErkJggg==;fontFamily=Tahoma;fontSize=10;" parent="1" vertex="1">
          <mxGeometry x="306" y="311" width="35" height="35" as="geometry" />
        </mxCell>
        <mxCell id="DkNM_tWxz2CX9CRkzyKB-69" value="" style="rounded=0;whiteSpace=wrap;html=1;strokeColor=light-dark(#613fbe, #ededed);fontFamily=Tahoma;fontSize=10;fillColor=none;" parent="1" vertex="1">
          <mxGeometry x="285" y="271.5" width="123" height="125.5" as="geometry" />
        </mxCell>
        <mxCell id="DkNM_tWxz2CX9CRkzyKB-35" value="" style="shape=image;imageAspect=0;aspect=fixed;verticalLabelPosition=bottom;verticalAlign=top;image=data:image/png,iVBORw0KGgoAAAANSUhEUgAAADIAAAAyCAMAAAAp4XiDAAAB/lBMVEUAAAAAAP+AAP9VVaqAQL9mM8xVK9VtSbZgQL9mM8x0RrliO8RtN8hmRMxwQL9pPMNmQL9oOsVqQMpsO8RoOcZmPMRpPMNmOcZqPsdnPMNoPsZpPMNnO8RqOsVoPcZrPMNqPsZoPcdqPMRpO8RrPsVpPcZoPMNqO8RoPsVrPcZpPMdnO8RqOsVoPcZpO8RnO8RpPcVoPMZqPMNrPcVqO8RqO8RqPMZpPMZoO8RpPcVoPMVpO8RpPMVoPMZpPMZpO8RoPcVqPMVpPMZoO8RpPcVoPMVqPcRpPMVoPMVpPcRqPcVpPMVoPMZpO8RpPcRqPMVpPMVoO8ZpPcRpO8ZqPcRoPMVpO8VpPcZqPMRpPMVoPMVpO8ZpPMVpPcRqPMVpO8VqPcZpPMRqPMRpPMVoPMVpO8VpPcZpPMRpO8VpPMVpPcVqPMZpPMVoPMVoO8VpPcVpPMZqPcVpPMVqPMVpPMRoPMVpO8VpPMVpPMZpPMVoO8VqPMVoPMVpO8VpPMVpPMVpPMRoPMVpPMVpPMVpPMZpPMVqPMVpPMVpPMVpPMVpPcVpPMVpPMVpPMZpO8VpPMVpPMVpPMVpPMVpPMVpPMVpPMVpPcVpPMVpPMVpPMVpPMVpPMVpPMVpPMVpPMRpPMVpPMVpPMVpPMVpPMVpPMVpPMVpPMVpPMVpPMX////1g/9EAAAAqHRSTlMAAQIDBAUGBwgKCw0ODxARFBYYGhseIigpLzEzNDU2Nzo7PD0+P0BBQkNERUZHSUpLTE1PUldZWltcXV9hYmZoaWprbG1ucXJzdXZ3eHl6e3x9foGChIWGh4iJio2PkZKTlJiZmpugoaOnqKmqq7CxsrW4uru8vb6/wMHLzc7P0NHS09TV1tfY2drb3N3e3+Dh4uTm6uvs7e7v8PHy8/T19vf4+fv8/f4hapDRAAAAAWJLR0SpJw8GBAAAAvpJREFUSMetlv0/U1Ecx78Xm4rR402x1jBMT+hB9ExIW5tnjbGUZKRCSdIoQ2KJWgrDctv9/Jn9cLe7u9nD1cv56Z7Pue97v+dzvud8D9HetLRT5ZUGQ2X5KZWs1xP0tike/sZ/6ixIiAOk1y8B2By32ywWm/3DFoAlc1oMYF/9GjDfpFUEBEV2swtYMydHI3LmgOF8JlRkCkeAz9kRAcbMYUoXaaRgGpyR2akreuFrVUT+vaKNR0/SDvUVPOejz7JkAy/DGKYX7qxYVmp+oic0NjPWs2Lbr9mAIcQrzieNKq2kpsn2pN10PUPy4RKe0wZ7ybNoETuHGsb/BlYf7r4CkWrHXHB9GjAV8Ip96gW23lmNt2/WNNoXAcxc80PKGZjELFlDrt+FWx5wA4VBr4+Z54GxDKGjx2ogT+sxLDzsHwJ6jxIdvGwdfO8ce1Z1gogpW8YfVhh/G/hNwhIK/C7gx1liLg5x4ly+3FfRgY/IE8bPYFHI60K4/NHmYZSOO4DtQeOFkxnaG4+XgXUdjQYQxgUhox6hkYJIM77fE7OdOedAXRChVnQQEdEUTkuQhzBKV6wJ9RIkDxNERCp+UyEXSfbyqUSkwTjJRWgSWURUBrt85DlKiagKnfKRLlQQkSmYX/GRVjz4P+Tu7gPb1fT7cWW3Jk8gU1hKpVxEueVLERJGKxfRwUFERDY0yUVaYPVvtq+MPIRZQHbYFouH6MWdVYfX8pAR8ShLW/VrcRA9VlICep3/UIqNKKdRK+rKWbQKiHfhdzjya8ErIG1wSipDNucrIiLWC4C/JEXKAcDLElExv62RjhjhURNROsuyh0OP7yMsy6YTkdqD6tBi0QO3OtbBr3ajO0xKegFPUXSi2IOBxHAxqQe8JUbh606MUF4NHJz5UcrrdnXkj2lngTf68CKuHwGcmmgRK02rgKs5RykKuS0uYKVWEcMYlekbAK+jr8ti6ep3eAG4DCnxrj26jknx2uNzWHMYWbelVPXVCoPhTmlmCu1N+we0vV0wduTsWgAAAABJRU5ErkJggg==;imageBackground=default;fontFamily=Tahoma;fontSize=10;" parent="1" vertex="1">
          <mxGeometry x="-109" y="420" width="50" height="50" as="geometry" />
        </mxCell>
        <mxCell id="DkNM_tWxz2CX9CRkzyKB-72" value="" style="rounded=0;whiteSpace=wrap;html=1;strokeColor=light-dark(#613fbe, #ededed);fontFamily=Tahoma;fontSize=10;fillColor=none;" parent="1" vertex="1">
          <mxGeometry x="282" y="553.5" width="127" height="125.5" as="geometry" />
        </mxCell>
        <mxCell id="DkNM_tWxz2CX9CRkzyKB-7" value="" style="rounded=0;whiteSpace=wrap;html=1;strokeColor=light-dark(#38b154, #ededed);fontFamily=Tahoma;fontSize=10;fillColor=none;" parent="1" vertex="1">
          <mxGeometry x="-38" y="348" width="108" height="80" as="geometry" />
        </mxCell>
        <mxCell id="DkNM_tWxz2CX9CRkzyKB-29" value="Egress Public" style="text;html=1;align=center;verticalAlign=middle;whiteSpace=wrap;rounded=0;fontFamily=Tahoma;fontSize=10;" parent="1" vertex="1">
          <mxGeometry x="-8" y="482.5" width="80" height="30" as="geometry" />
        </mxCell>
        <mxCell id="DkNM_tWxz2CX9CRkzyKB-21" value="" style="rounded=0;whiteSpace=wrap;html=1;strokeColor=light-dark(#6440c1, #ededed);fontFamily=Tahoma;fontSize=10;fillColor=default;" parent="1" vertex="1">
          <mxGeometry x="80.5" y="348" width="110" height="80" as="geometry" />
        </mxCell>
        <mxCell id="DkNM_tWxz2CX9CRkzyKB-22" value="" style="shape=image;imageAspect=0;aspect=fixed;verticalLabelPosition=bottom;verticalAlign=top;image=data:image/png,iVBORw0KGgoAAAANSUhEUgAAACMAAAAjCAMAAAApB0NrAAAAt1BMVEVpPMVqPsVrPsZsQMZtQcduQsdvRMd8VMx+WM2DXs+FYNCGYdCJZdGMatONa9OTc9WWd9eZetebfdiihtukidylitypj96qkd6rkt6tld+uleCuluCwmOCwmeGym+G2oOO7p+W+qua+q+a/rObDsejEs+jFs+jJuerKuuvNvuzOwOzPwe3SxO3VyO/YzPDZzvDb0PHg1vPl3fXn4Pbp4vbq4/ft6Pju6fjv6vnx7fr9/f7+/v////8jFTXkAAAAAWJLR0Q8p2phzwAAAKtJREFUOMtjYBgZgFNWUYYTrwoWNQsFcQULVRY8ajS02IAkm7Y6biV8JhADWE15capRloQypJVwqtERgDIEdHCq0eWHMvh1yVejrKlpaaAJAQaWmprKWNSYigkhAzFTbGo4ULgceNQwszMTUsNlZmbOTUCNngiDsD4BNUY8DNzGBNRIGEkZSRJys6C1EEF/MVgxUUeNISNhNXjDWU4UGchhUyOvggrkh30ZAACvQhXLhmp1IAAAAABJRU5ErkJggg==;fontFamily=Tahoma;fontSize=10;" parent="1" vertex="1">
          <mxGeometry x="80.5" y="348" width="35" height="35" as="geometry" />
        </mxCell>
        <mxCell id="DkNM_tWxz2CX9CRkzyKB-23" value="Egress Private" style="text;html=1;align=center;verticalAlign=middle;whiteSpace=wrap;rounded=0;fontFamily=Tahoma;fontSize=10;" parent="1" vertex="1">
          <mxGeometry x="108.5" y="349.5" width="89" height="30" as="geometry" />
        </mxCell>
        <mxCell id="NRpxafxbuI9e7MQL-Ni9-1" value="" style="rounded=0;whiteSpace=wrap;html=1;strokeColor=light-dark(#6440c1, #ededed);fontFamily=Tahoma;fontSize=10;fillColor=default;" vertex="1" parent="1">
          <mxGeometry x="80.5" y="480" width="110" height="80" as="geometry" />
        </mxCell>
        <mxCell id="NRpxafxbuI9e7MQL-Ni9-2" value="" style="shape=image;imageAspect=0;aspect=fixed;verticalLabelPosition=bottom;verticalAlign=top;image=data:image/png,iVBORw0KGgoAAAANSUhEUgAAACMAAAAjCAMAAAApB0NrAAAAt1BMVEVpPMVqPsVrPsZsQMZtQcduQsdvRMd8VMx+WM2DXs+FYNCGYdCJZdGMatONa9OTc9WWd9eZetebfdiihtukidylitypj96qkd6rkt6tld+uleCuluCwmOCwmeGym+G2oOO7p+W+qua+q+a/rObDsejEs+jFs+jJuerKuuvNvuzOwOzPwe3SxO3VyO/YzPDZzvDb0PHg1vPl3fXn4Pbp4vbq4/ft6Pju6fjv6vnx7fr9/f7+/v////8jFTXkAAAAAWJLR0Q8p2phzwAAAKtJREFUOMtjYBgZgFNWUYYTrwoWNQsFcQULVRY8ajS02IAkm7Y6biV8JhADWE15capRloQypJVwqtERgDIEdHCq0eWHMvh1yVejrKlpaaAJAQaWmprKWNSYigkhAzFTbGo4ULgceNQwszMTUsNlZmbOTUCNngiDsD4BNUY8DNzGBNRIGEkZSRJys6C1EEF/MVgxUUeNISNhNXjDWU4UGchhUyOvggrkh30ZAACvQhXLhmp1IAAAAABJRU5ErkJggg==;fontFamily=Tahoma;fontSize=10;" vertex="1" parent="1">
          <mxGeometry x="80.5" y="480" width="35" height="35" as="geometry" />
        </mxCell>
        <mxCell id="NRpxafxbuI9e7MQL-Ni9-3" value="Egress Private" style="text;html=1;align=center;verticalAlign=middle;whiteSpace=wrap;rounded=0;fontFamily=Tahoma;fontSize=10;" vertex="1" parent="1">
          <mxGeometry x="108.5" y="481.5" width="89" height="30" as="geometry" />
        </mxCell>
      </root>
    </mxGraphModel>
  </diagram>
</mxfile>
